<svg version="1.1" viewBox="0.0 0.0 894.0 326.0" fill="none" stroke="none" stroke-linecap="square" stroke-miterlimit="10" xmlns:xlink="http://www.w3.org/1999/xlink" xmlns="http://www.w3.org/2000/svg"><clipPath id="p.0"><path d="m0 0l894.0 0l0 326.0l-894.0 0l0 -326.0z" clip-rule="nonzero"/></clipPath><g clip-path="url(#p.0)"><path fill="#000000" fill-opacity="0.0" d="m0 0l894.0 0l0 326.0l-894.0 0z" fill-rule="evenodd"/><path fill="#000000" fill-opacity="0.0" d="m676.6615 169.66327l0.12597656 -45.102364" fill-rule="evenodd"/><path stroke="#76a5af" stroke-width="2.0" stroke-linejoin="round" stroke-linecap="butt" d="m676.6615 169.66327l0.09246826 -33.102417" fill-rule="evenodd"/><path fill="#76a5af" stroke="#76a5af" stroke-width="2.0" stroke-linecap="butt" d="m680.05743 136.57008l-3.2781372 -9.085388l-3.3287964 9.066925z" fill-rule="evenodd"/><path fill="#000000" fill-opacity="0.0" d="m629.3728 169.66327l0.03149414 -45.102364" fill-rule="evenodd"/><path stroke="#a4c2f4" stroke-width="2.0" stroke-linejoin="round" stroke-linecap="butt" d="m629.3728 169.66327l0.023132324 -33.10237" fill-rule="evenodd"/><path fill="#a4c2f4" stroke="#a4c2f4" stroke-width="2.0" stroke-linecap="butt" d="m632.69934 136.5632l-3.2971191 -9.078499l-3.3098145 9.073891z" fill-rule="evenodd"/><path fill="#000000" fill-opacity="0.0" d="m582.0839 169.66359l0.66137695 -45.102356" fill-rule="evenodd"/><path stroke="#b4a7d6" stroke-width="2.0" stroke-linejoin="round" stroke-linecap="butt" d="m582.0839 169.66359l0.4854126 -33.103653" fill-rule="evenodd"/><path fill="#b4a7d6" stroke="#b4a7d6" stroke-width="2.0" stroke-linecap="butt" d="m585.8725 136.60838l-3.170044 -9.123665l-3.4362183 9.026787z" fill-rule="evenodd"/><path fill="#cccccc" d="m7.0 140.29968l0 0c0 -8.810455 7.043583 -15.952751 15.732283 -15.952751l0 0c4.1724625 0 8.17403 1.6807327 11.124407 4.6724625c2.9503746 2.9917145 4.607876 7.049362 4.607876 11.280289l0 0c0 8.810471 -7.043581 15.952759 -15.732283 15.952759l0 0c-8.6887 0 -15.732283 -7.142288 -15.732283 -15.952759z" fill-rule="evenodd"/><path stroke="#b7b7b7" stroke-width="2.0" stroke-linejoin="round" stroke-linecap="butt" d="m7.0 140.29968l0 0c0 -8.810455 7.043583 -15.952751 15.732283 -15.952751l0 0c4.1724625 0 8.17403 1.6807327 11.124407 4.6724625c2.9503746 2.9917145 4.607876 7.049362 4.607876 11.280289l0 0c0 8.810471 -7.043581 15.952759 -15.732283 15.952759l0 0c-8.6887 0 -15.732283 -7.142288 -15.732283 -15.952759z" fill-rule="evenodd"/><path fill="#cccccc" d="m147.14969 88.1397l0 0c0 -8.810471 7.0435944 -15.952759 15.732285 -15.952759l0 0c4.17247 0 8.1740265 1.6807327 11.124405 4.672455c2.9503784 2.991722 4.6078796 7.04937 4.6078796 11.280304l0 0c0 8.810463 -7.043579 15.952751 -15.732285 15.952751l0 0c-8.68869 0 -15.732285 -7.142288 -15.732285 -15.952751z" fill-rule="evenodd"/><path stroke="#b7b7b7" stroke-width="2.0" stroke-linejoin="round" stroke-linecap="butt" d="m147.14969 88.1397l0 0c0 -8.810471 7.0435944 -15.952759 15.732285 -15.952759l0 0c4.17247 0 8.1740265 1.6807327 11.124405 4.672455c2.9503784 2.991722 4.6078796 7.04937 4.6078796 11.280304l0 0c0 8.810463 -7.043579 15.952751 -15.732285 15.952751l0 0c-8.68869 0 -15.732285 -7.142288 -15.732285 -15.952751z" fill-rule="evenodd"/><path fill="#cccccc" d="m107.958046 251.79001l0 0c0 -8.810455 7.0435867 -15.952744 15.732285 -15.952744l0 0c4.1724625 0 8.174034 1.6807251 11.124397 4.6724396c2.9503784 2.9917297 4.6078796 7.0493774 4.6078796 11.280304l0 0c0 8.810455 -7.043579 15.952759 -15.732277 15.952759l0 0c-8.688698 0 -15.732285 -7.1423035 -15.732285 -15.952759z" fill-rule="evenodd"/><path stroke="#b7b7b7" stroke-width="2.0" stroke-linejoin="round" stroke-linecap="butt" d="m107.958046 251.79001l0 0c0 -8.810455 7.0435867 -15.952744 15.732285 -15.952744l0 0c4.1724625 0 8.174034 1.6807251 11.124397 4.6724396c2.9503784 2.9917297 4.6078796 7.0493774 4.6078796 11.280304l0 0c0 8.810455 -7.043579 15.952759 -15.732277 15.952759l0 0c-8.688698 0 -15.732285 -7.1423035 -15.732285 -15.952759z" fill-rule="evenodd"/><path fill="#cccccc" d="m304.49658 81.27564l0 0c0 -8.810463 7.3608704 -15.952759 16.440948 -15.952759l0 0c4.3604126 0 8.542236 1.6807327 11.625519 4.672455c3.083252 2.991722 4.8154297 7.04937 4.8154297 11.280304l0 0c0 8.810463 -7.3608704 15.952759 -16.440948 15.952759l0 0c-9.080078 0 -16.440948 -7.142296 -16.440948 -15.952759z" fill-rule="evenodd"/><path stroke="#b7b7b7" stroke-width="2.0" stroke-linejoin="round" stroke-linecap="butt" d="m304.49658 81.27564l0 0c0 -8.810463 7.3608704 -15.952759 16.440948 -15.952759l0 0c4.3604126 0 8.542236 1.6807327 11.625519 4.672455c3.083252 2.991722 4.8154297 7.04937 4.8154297 11.280304l0 0c0 8.810463 -7.3608704 15.952759 -16.440948 15.952759l0 0c-9.080078 0 -16.440948 -7.142296 -16.440948 -15.952759z" fill-rule="evenodd"/><path fill="#cccccc" d="m195.39966 158.47482l0 0c0 -8.810455 7.3608704 -15.952759 16.440948 -15.952759l0 0c4.3604126 0 8.542221 1.6807404 11.625504 4.672455c3.0832825 2.9917297 4.815445 7.0493774 4.815445 11.280304l0 0c0 8.810471 -7.3608704 15.952759 -16.440948 15.952759l0 0c-9.080078 0 -16.440948 -7.142288 -16.440948 -15.952759z" fill-rule="evenodd"/><path stroke="#b7b7b7" stroke-width="2.0" stroke-linejoin="round" stroke-linecap="butt" d="m195.39966 158.47482l0 0c0 -8.810455 7.3608704 -15.952759 16.440948 -15.952759l0 0c4.3604126 0 8.542221 1.6807404 11.625504 4.672455c3.0832825 2.9917297 4.815445 7.0493774 4.815445 11.280304l0 0c0 8.810471 -7.3608704 15.952759 -16.440948 15.952759l0 0c-9.080078 0 -16.440948 -7.142288 -16.440948 -15.952759z" fill-rule="evenodd"/><path fill="#b4a7d6" d="m334.44623 154.62993l0 0c0 -8.810471 7.043579 -15.952759 15.7323 -15.952759l0 0c4.172455 0 8.174011 1.6807251 11.12439 4.672455c2.9503784 2.9917145 4.6078796 7.049362 4.6078796 11.280304l0 0c0 8.810455 -7.043579 15.952744 -15.732269 15.952744l0 0c-8.688721 0 -15.7323 -7.142288 -15.7323 -15.952744z" fill-rule="evenodd"/><path stroke="#351c75" stroke-width="2.0" stroke-linejoin="round" stroke-linecap="butt" d="m334.44623 154.62993l0 0c0 -8.810471 7.043579 -15.952759 15.7323 -15.952759l0 0c4.172455 0 8.174011 1.6807251 11.12439 4.672455c2.9503784 2.9917145 4.6078796 7.049362 4.6078796 11.280304l0 0c0 8.810455 -7.043579 15.952744 -15.732269 15.952744l0 0c-8.688721 0 -15.7323 -7.142288 -15.7323 -15.952744z" fill-rule="evenodd"/><path fill="#cc0000" d="m287.35962 238.05774l0 0c0 -8.810471 7.043579 -15.952759 15.7323 -15.952759l0 0c4.172455 0 8.174011 1.6807404 11.12439 4.672455c2.9503784 2.9917297 4.6078796 7.0493774 4.6078796 11.280304l0 0c0 8.810471 -7.043579 15.952759 -15.732269 15.952759l0 0c-8.688721 0 -15.7323 -7.142288 -15.7323 -15.952759z" fill-rule="evenodd"/><path stroke="#000000" stroke-width="2.0" stroke-linejoin="round" stroke-linecap="butt" d="m287.35962 238.05774l0 0c0 -8.810471 7.043579 -15.952759 15.7323 -15.952759l0 0c4.172455 0 8.174011 1.6807404 11.12439 4.672455c2.9503784 2.9917297 4.6078796 7.0493774 4.6078796 11.280304l0 0c0 8.810471 -7.043579 15.952759 -15.732269 15.952759l0 0c-8.688721 0 -15.7323 -7.142288 -15.7323 -15.952759z" fill-rule="evenodd"/><path fill="#a4c2f4" d="m107.95796 168.01288l0 0c0 -8.810471 7.0435867 -15.952759 15.732285 -15.952759l0 0c4.1724625 0 8.1740265 1.6807251 11.124405 4.672455c2.9503784 2.9917145 4.6078796 7.049362 4.6078796 11.280304l0 0c0 8.810455 -7.043579 15.952744 -15.732285 15.952744l0 0c-8.688698 0 -15.732285 -7.142288 -15.732285 -15.952744z" fill-rule="evenodd"/><path stroke="#1155cc" stroke-width="2.0" stroke-linejoin="round" stroke-linecap="butt" d="m107.95796 168.01288l0 0c0 -8.810471 7.0435867 -15.952759 15.732285 -15.952759l0 0c4.1724625 0 8.1740265 1.6807251 11.124405 4.672455c2.9503784 2.9917145 4.6078796 7.049362 4.6078796 11.280304l0 0c0 8.810455 -7.043579 15.952744 -15.732285 15.952744l0 0c-8.688698 0 -15.732285 -7.142288 -15.732285 -15.952744z" fill-rule="evenodd"/><path fill="#cccccc" d="m422.34384 87.63777l0 0c0 -8.810463 7.36084 -15.952759 16.440918 -15.952759l0 0c4.3604126 0 8.542236 1.6807327 11.625519 4.672455c3.0832825 2.991722 4.8154297 7.04937 4.8154297 11.280304l0 0c0 8.810463 -7.36084 15.952759 -16.440948 15.952759l0 0c-9.080078 0 -16.440918 -7.142296 -16.440918 -15.952759z" fill-rule="evenodd"/><path stroke="#b7b7b7" stroke-width="2.0" stroke-linejoin="round" stroke-linecap="butt" d="m422.34384 87.63777l0 0c0 -8.810463 7.36084 -15.952759 16.440918 -15.952759l0 0c4.3604126 0 8.542236 1.6807327 11.625519 4.672455c3.0832825 2.991722 4.8154297 7.04937 4.8154297 11.280304l0 0c0 8.810463 -7.36084 15.952759 -16.440948 15.952759l0 0c-9.080078 0 -16.440918 -7.142296 -16.440918 -15.952759z" fill-rule="evenodd"/><path fill="#cccccc" d="m451.5727 196.05754l0 0c0 -8.810471 7.043579 -15.952759 15.732269 -15.952759l0 0c4.172455 0 8.174042 1.6807251 11.12442 4.672455c2.9503784 2.9917145 4.6078796 7.049362 4.6078796 11.280304l0 0c0 8.810455 -7.043579 15.952759 -15.7323 15.952759l0 0c-8.68869 0 -15.732269 -7.1423035 -15.732269 -15.952759z" fill-rule="evenodd"/><path stroke="#b7b7b7" stroke-width="2.0" stroke-linejoin="round" stroke-linecap="butt" d="m451.5727 196.05754l0 0c0 -8.810471 7.043579 -15.952759 15.732269 -15.952759l0 0c4.172455 0 8.174042 1.6807251 11.12442 4.672455c2.9503784 2.9917145 4.6078796 7.049362 4.6078796 11.280304l0 0c0 8.810455 -7.043579 15.952759 -15.7323 15.952759l0 0c-8.68869 0 -15.732269 -7.1423035 -15.732269 -15.952759z" fill-rule="evenodd"/><path fill="#a2c4c9" d="m229.18631 48.133636l0 0c0 -8.810463 7.0435944 -15.952755 15.732285 -15.952755l0 0c4.17247 0 8.1740265 1.6807289 11.124405 4.672451c2.9503784 2.991722 4.6078796 7.04937 4.6078796 11.280304l0 0c0 8.810463 -7.043579 15.952759 -15.732285 15.952759l0 0c-8.68869 0 -15.732285 -7.142296 -15.732285 -15.952759z" fill-rule="evenodd"/><path stroke="#45818e" stroke-width="2.0" stroke-linejoin="round" stroke-linecap="butt" d="m229.18631 48.133636l0 0c0 -8.810463 7.0435944 -15.952755 15.732285 -15.952755l0 0c4.17247 0 8.1740265 1.6807289 11.124405 4.672451c2.9503784 2.991722 4.6078796 7.04937 4.6078796 11.280304l0 0c0 8.810463 -7.043579 15.952759 -15.732285 15.952759l0 0c-8.68869 0 -15.732285 -7.142296 -15.732285 -15.952759z" fill-rule="evenodd"/><path fill="#cccccc" d="m417.94284 287.38562l0 0c0 -8.810455 7.043579 -15.952759 15.732269 -15.952759l0 0c4.172455 0 8.174042 1.6807251 11.12442 4.672455c2.950348 2.9917297 4.6078796 7.0493774 4.6078796 11.280304l0 0c0 8.810455 -7.0436096 15.952759 -15.7323 15.952759l0 0c-8.68869 0 -15.732269 -7.1423035 -15.732269 -15.952759z" fill-rule="evenodd"/><path stroke="#b7b7b7" stroke-width="2.0" stroke-linejoin="round" stroke-linecap="butt" d="m417.94284 287.38562l0 0c0 -8.810455 7.043579 -15.952759 15.732269 -15.952759l0 0c4.172455 0 8.174042 1.6807251 11.12442 4.672455c2.950348 2.9917297 4.6078796 7.0493774 4.6078796 11.280304l0 0c0 8.810455 -7.0436096 15.952759 -15.7323 15.952759l0 0c-8.68869 0 -15.732269 -7.1423035 -15.732269 -15.952759z" fill-rule="evenodd"/><path fill="#000000" fill-opacity="0.0" d="m107.95796 168.01288l-69.480316 -27.716537" fill-rule="evenodd"/><path stroke="#b7b7b7" stroke-width="1.0" stroke-linejoin="round" stroke-linecap="butt" d="m107.95796 168.01288l-66.29715 -26.446732" fill-rule="evenodd"/><path fill="#b7b7b7" stroke="#b7b7b7" stroke-width="1.0" stroke-linecap="butt" d="m41.660812 141.56615l1.4612198 -0.62786865l-3.2865334 -0.10028076l2.4531746 2.1893616z" fill-rule="evenodd"/><path fill="#000000" fill-opacity="0.0" d="m139.42253 168.01288l55.968506 -9.54332" fill-rule="evenodd"/><path stroke="#b7b7b7" stroke-width="2.0" stroke-linejoin="round" stroke-linecap="butt" d="m139.42253 168.01288l49.211838 -8.39122" fill-rule="evenodd"/><path fill="#b7b7b7" stroke="#b7b7b7" stroke-width="2.0" stroke-linecap="butt" d="m188.63438 159.62166l-1.8391113 2.59523l5.713562 -3.2558746l-6.469681 -1.1784668z" fill-rule="evenodd"/><path fill="#000000" fill-opacity="0.0" d="m174.00638 76.8594l55.181107 -28.724411" fill-rule="evenodd"/><path stroke="#b7b7b7" stroke-width="1.0" stroke-linejoin="round" stroke-linecap="butt" d="m174.00638 76.8594l52.14122 -27.142006" fill-rule="evenodd"/><path fill="#b7b7b7" stroke="#b7b7b7" stroke-width="1.0" stroke-linecap="butt" d="m226.1476 49.717392l-0.47827148 1.5167847l2.2214203 -2.424179l-3.2599335 0.42913055z" fill-rule="evenodd"/><path fill="#000000" fill-opacity="0.0" d="m33.85669 151.57999l78.70866 88.944885" fill-rule="evenodd"/><path stroke="#b7b7b7" stroke-width="1.0" stroke-linejoin="round" stroke-linecap="butt" d="m33.85669 151.57999l76.43753 86.37839" fill-rule="evenodd"/><path fill="#b7b7b7" stroke="#b7b7b7" stroke-width="1.0" stroke-linecap="butt" d="m110.29422 237.95837l-1.5874481 -0.09692383l2.8897781 1.5686188l-1.2054062 -3.059143z" fill-rule="evenodd"/><path fill="#000000" fill-opacity="0.0" d="m151.75757 99.42l-28.062988 52.62993" fill-rule="evenodd"/><path stroke="#b7b7b7" stroke-width="1.0" stroke-linejoin="round" stroke-linecap="butt" d="m151.75758 99.42l-26.450539 49.605865" fill-rule="evenodd"/><path fill="#b7b7b7" stroke="#b7b7b7" stroke-width="1.0" stroke-linecap="butt" d="m125.30705 149.02586l-0.46321106 -1.5214386l-0.46142578 3.2555237l2.446083 -2.197281z" fill-rule="evenodd"/><path fill="#000000" fill-opacity="0.0" d="m350.17853 138.67717l-17.606293 -46.110237" fill-rule="evenodd"/><path stroke="#b7b7b7" stroke-width="2.0" stroke-linejoin="round" stroke-linecap="butt" d="m350.17853 138.67717l-15.161346 -39.706978" fill-rule="evenodd"/><path fill="#b7b7b7" stroke="#b7b7b7" stroke-width="2.0" stroke-linecap="butt" d="m335.01718 98.9702l2.9035034 1.2988968l-4.3055115 -4.970703l0.1031189 6.5753098z" fill-rule="evenodd"/><path fill="#000000" fill-opacity="0.0" d="m256.043 59.413937l48.44095 21.858273" fill-rule="evenodd"/><path stroke="#b7b7b7" stroke-width="2.0" stroke-linejoin="round" stroke-linecap="butt" d="m256.043 59.41394l42.19336 19.039139" fill-rule="evenodd"/><path fill="#b7b7b7" stroke="#b7b7b7" stroke-width="2.0" stroke-linecap="butt" d="m298.23636 78.45308l-2.9751892 1.1250305l6.5577393 0.49153137l-4.7075806 -4.5917587z" fill-rule="evenodd"/><path fill="#000000" fill-opacity="0.0" d="m260.65088 48.133636l166.51968 28.220474" fill-rule="evenodd"/><path stroke="#b7b7b7" stroke-width="1.0" stroke-linejoin="round" stroke-linecap="butt" d="m260.65088 48.133636l163.14078 27.647842" fill-rule="evenodd"/><path fill="#b7b7b7" stroke="#b7b7b7" stroke-width="1.0" stroke-linecap="butt" d="m423.79166 75.78148l-1.2966919 0.9208679l3.234253 -0.5925064l-2.858429 -1.6250381z" fill-rule="evenodd"/><path fill="#000000" fill-opacity="0.0" d="m438.78476 103.59053l28.535461 76.50394" fill-rule="evenodd"/><path stroke="#b7b7b7" stroke-width="1.0" stroke-linejoin="round" stroke-linecap="butt" d="m438.7848 103.59053l27.337738 73.29294" fill-rule="evenodd"/><path fill="#b7b7b7" stroke="#b7b7b7" stroke-width="1.0" stroke-linecap="butt" d="m466.12253 176.88347l-1.4466858 -0.6606598l2.133484 2.5019379l-0.026123047 -3.2879639z" fill-rule="evenodd"/><path fill="#000000" fill-opacity="0.0" d="m223.46611 169.75513l68.50392 57.007874" fill-rule="evenodd"/><path stroke="#6aa84f" stroke-width="2.0" stroke-linejoin="round" stroke-linecap="butt" d="m223.46611 169.75513l63.235428 52.62352" fill-rule="evenodd"/><path fill="#6aa84f" stroke="#6aa84f" stroke-width="2.0" stroke-linecap="butt" d="m286.70154 222.37865l-3.1675415 0.29011536l6.1886597 2.2239838l-3.3112488 -5.681656z" fill-rule="evenodd"/><path fill="#000000" fill-opacity="0.0" d="m314.2163 249.33804l103.71655 38.04724" fill-rule="evenodd"/><path stroke="#85200c" stroke-width="2.0" stroke-linejoin="round" stroke-linecap="butt" d="m314.2163 249.33804l97.28168 35.686676" fill-rule="evenodd"/><path fill="#85200c" stroke="#85200c" stroke-width="2.0" stroke-linecap="butt" d="m411.49802 285.02475l-2.8862 1.3369446l6.576111 0.016662598l-5.026886 -4.239807z" fill-rule="evenodd"/><path fill="#000000" fill-opacity="0.0" d="m350.17853 170.58267l-35.968506 56.18898" fill-rule="evenodd"/><path stroke="#a64d79" stroke-width="2.0" stroke-linejoin="round" stroke-linecap="butt" d="m350.17853 170.58267l-32.273193 50.41626" fill-rule="evenodd"/><path fill="#a64d79" stroke="#a64d79" stroke-width="2.0" stroke-linecap="butt" d="m317.90533 220.99893l-0.68170166 -3.106903l-1.4372864 6.417145l5.225891 -3.991928z" fill-rule="evenodd"/><path fill="#000000" fill-opacity="0.0" d="m123.69033 235.83727l0 -51.874023" fill-rule="evenodd"/><path stroke="#b7b7b7" stroke-width="1.0" stroke-linejoin="round" stroke-linecap="butt" d="m123.69033 235.83725l0 -48.44693" fill-rule="evenodd"/><path fill="#b7b7b7" stroke="#b7b7b7" stroke-width="1.0" stroke-linecap="butt" d="m123.69033 187.39032l1.1245804 1.124588l-1.1245804 -3.0897675l-1.124588 3.0897675z" fill-rule="evenodd"/><path fill="#000000" fill-opacity="0.0" d="m451.5727 196.05754l-85.66931 -41.417328" fill-rule="evenodd"/><path stroke="#b7b7b7" stroke-width="1.0" stroke-linejoin="round" stroke-linecap="butt" d="m451.57266 196.05754l-82.58386 -39.92566" fill-rule="evenodd"/><path fill="#b7b7b7" stroke="#b7b7b7" stroke-width="1.0" stroke-linecap="butt" d="m368.9888 156.13188l1.5019531 -0.52297974l-3.2712097 -0.3323822l2.2922363 2.357315z" fill-rule="evenodd"/><path fill="#000000" fill-opacity="0.0" d="m444.79953 276.10532l22.519684 -64.09448" fill-rule="evenodd"/><path stroke="#b7b7b7" stroke-width="1.0" stroke-linejoin="round" stroke-linecap="butt" d="m444.7995 276.10532l21.383667 -60.86116" fill-rule="evenodd"/><path fill="#b7b7b7" stroke="#b7b7b7" stroke-width="1.0" stroke-linecap="butt" d="m466.18317 215.24414l0.6882019 1.4337921l-0.03677368 -3.287857l-2.0852356 2.542282z" fill-rule="evenodd"/><path fill="#000000" fill-opacity="0.0" d="m287.35962 238.05774c-37.76378 0 -75.52756 -31.81102 -75.52756 -63.62204" fill-rule="evenodd"/><path stroke="#6aa84f" stroke-width="2.0" stroke-linejoin="round" stroke-linecap="butt" stroke-dasharray="8.0,6.0" d="m287.35962 238.05774c-18.881897 0 -37.76378 -7.952759 -51.9252 -19.881882c-7.0807037 -5.964569 -12.981293 -12.923233 -17.11171 -20.378937c-2.0652008 -3.7278595 -3.6878662 -7.5799713 -4.79422 -11.494217c-0.27659607 -0.9785614 -0.5209198 -1.9609985 -0.7318115 -2.9463654c-0.10546875 -0.49267578 -0.20256042 -0.98609924 -0.2911377 -1.4801025l-0.1040802 -0.61006165" fill-rule="evenodd"/><path fill="#6aa84f" stroke="#6aa84f" stroke-width="2.0" stroke-linecap="butt" d="m212.40144 181.26617l2.428238 2.0545502l-2.7547302 -5.9713287l-1.7280579 6.3450165z" fill-rule="evenodd"/><path fill="#000000" fill-opacity="0.0" d="m318.8242 238.05774c21.24411 0 42.48819 -36.078735 42.48819 -72.157486" fill-rule="evenodd"/><path stroke="#a64d79" stroke-width="2.0" stroke-linejoin="round" stroke-linecap="butt" stroke-dasharray="8.0,6.0" d="m318.8242 238.05774c10.62204 0 21.24408 -9.019684 29.210632 -22.54921c3.9832764 -6.7647705 7.302643 -14.656982 9.626221 -23.112946c1.1618042 -4.2279816 2.0746155 -8.596878 2.6970215 -13.036255c0.15557861 -1.109848 0.2930298 -2.2240906 0.4116516 -3.3416595c0.05935669 -0.5587616 0.113983154 -1.1183777 0.16381836 -1.6786499c0.024871826 -0.28015137 0.048614502 -0.5604706 0.071136475 -0.8409424l0.056854248 -0.74824524" fill-rule="evenodd"/><path fill="#a64d79" stroke="#a64d79" stroke-width="2.0" stroke-linecap="butt" d="m361.0615 172.74985l2.1653442 2.3299866l-2.0214844 -6.257721l-2.4738464 6.0930634z" fill-rule="evenodd"/><path fill="#cc0000" d="m691.9568 27.574028l0 0c0 -6.31431 4.8861084 -11.433071 10.913391 -11.433071l0 0c2.8944092 0 5.670288 1.2045536 7.716919 3.348669c2.0466309 2.1441174 3.1964722 5.052164 3.1964722 8.084402l0 0c0 6.314312 -4.8861084 11.433071 -10.913391 11.433071l0 0c-6.0272827 0 -10.913391 -5.118759 -10.913391 -11.433071z" fill-rule="evenodd"/><path stroke="#000000" stroke-width="2.0" stroke-linejoin="round" stroke-linecap="butt" d="m691.9568 27.574028l0 0c0 -6.31431 4.8861084 -11.433071 10.913391 -11.433071l0 0c2.8944092 0 5.670288 1.2045536 7.716919 3.348669c2.0466309 2.1441174 3.1964722 5.052164 3.1964722 8.084402l0 0c0 6.314312 -4.8861084 11.433071 -10.913391 11.433071l0 0c-6.0272827 0 -10.913391 -5.118759 -10.913391 -11.433071z" fill-rule="evenodd"/><path fill="#000000" fill-opacity="0.0" d="m247.42258 171.08005l43.716522 0l0 35.559067l-43.716522 0z" fill-rule="evenodd"/><path fill="#6aa84f" d="m267.60074 187.8488q-0.40625 -0.15625 -0.75 -0.15625q-0.46875 0 -0.78125 0.25q-0.3125 0.25 -0.40625 0.625l0 4.3125l-1.734375 0l0 -6.65625l1.34375 0l0.203125 0.875l0.046875 0q0.21875 -0.5 0.609375 -0.765625q0.390625 -0.265625 0.90625 -0.265625q0.34375 0 0.796875 0.15625l-0.234375 1.625zm1.5844116 3.5625l1.859375 0l0 -5.265625l0.203125 -0.90625l-0.640625 0.796875l-1.1875 0.8125l-0.734375 -1.0l3.03125 -2.453125l0.96875 0l0 8.015625l1.8125 0l0 1.46875l-5.3125 0l0 -1.46875z" fill-rule="nonzero"/><path fill="#000000" fill-opacity="0.0" d="m298.0013 162.61285l43.716522 0l0 35.559067l-43.716522 0z" fill-rule="evenodd"/><path fill="#a64d79" d="m318.1795 179.3816q-0.40625 -0.15625 -0.75 -0.15625q-0.46875 0 -0.78125 0.25q-0.3125 0.25 -0.40625 0.625l0 4.3125l-1.734375 0l0 -6.65625l1.34375 0l0.203125 0.875l0.046875 0q0.21875 -0.5 0.609375 -0.765625q0.390625 -0.265625 0.90625 -0.265625q0.34375 0 0.796875 0.15625l-0.234375 1.625zm3.4594116 3.75q0.8125 0 1.25 -0.4375q0.4375 -0.4375 0.4375 -1.0625q0 -0.765625 -0.453125 -1.125q-0.453125 -0.359375 -1.421875 -0.359375l-0.96875 0l0 -0.921875l1.609375 -2.203125l0.765625 -0.59375l-1.046875 0.125l-2.25 0l0 -1.46875l5.09375 0l0 0.9375l-1.875 2.53125l-0.59375 0.359375l0 0.0625l0.5625 -0.078125q0.46875 0.03125 0.890625 0.21875q0.421875 0.171875 0.734375 0.5q0.3125 0.3125 0.5 0.796875q0.1875 0.484375 0.1875 1.109375q0 0.78125 -0.265625 1.359375q-0.25 0.578125 -0.71875 0.96875q-0.453125 0.375 -1.078125 0.5625q-0.609375 0.1875 -1.3125 0.1875q-0.59375 0 -1.21875 -0.109375q-0.625 -0.109375 -1.0 -0.3125l0.453125 -1.4375q0.359375 0.171875 0.765625 0.28125q0.421875 0.109375 0.953125 0.109375z" fill-rule="nonzero"/><path fill="#000000" fill-opacity="0.0" d="m337.37534 258.2034l43.716522 0l0 35.559082l-43.716522 0z" fill-rule="evenodd"/><path fill="#85200c" d="m357.5535 274.97217q-0.40625 -0.15625 -0.75 -0.15625q-0.46875 0 -0.78125 0.25q-0.3125 0.25 -0.40625 0.625l0 4.3125l-1.734375 0l0 -6.65625l1.34375 0l0.203125 0.875l0.046875 0q0.21875 -0.5 0.609375 -0.765625q0.390625 -0.265625 0.90625 -0.265625q0.34375 0 0.796875 0.15625l-0.234375 1.625zm1.6312866 5.03125l3.046875 -7.1875l0.59375 -0.65625l-0.8125 0.140625l-3.421875 0l0 -1.625l6.015625 0l0 0.5l-3.734375 8.828125l-1.6875 0z" fill-rule="nonzero"/><path fill="#000000" fill-opacity="0.0" d="m189.15613 206.63911l58.26773 0l0 35.55905l-58.26773 0z" fill-rule="evenodd"/><path fill="#6aa84f" d="m205.04779 223.40785q-0.40625 -0.15625 -0.75 -0.15625q-0.46875 0 -0.78125 0.25q-0.3125 0.25 -0.40625 0.625l0 4.3125l-1.734375 0l0 -6.65625l1.34375 0l0.203125 0.875l0.046875 0q0.21875 -0.5 0.609375 -0.765625q0.390625 -0.265625 0.90625 -0.265625q0.34375 0 0.796875 0.15625l-0.234375 1.625zm1.5844116 3.5625l1.859375 0l0 -5.265625l0.203125 -0.90625l-0.640625 0.796875l-1.1875 0.8125l-0.734375 -1.0l3.03125 -2.453125l0.96875 0l0 8.015625l1.8125 0l0 1.46875l-5.3125 0l0 -1.46875zm6.213272 3.03125l5.921875 0l0 1.421875l-5.921875 0l0 -1.421875zm6.8239136 -8.21875l1.734375 0l0 6.65625l-1.734375 0l0 -6.65625zm-0.25 -1.890625q0 -0.390625 0.28125 -0.65625q0.296875 -0.265625 0.796875 -0.265625q0.515625 0 0.828125 0.265625q0.3125 0.265625 0.3125 0.65625q0 0.390625 -0.3125 0.65625q-0.3125 0.25 -0.828125 0.25q-0.5 0 -0.796875 -0.25q-0.28125 -0.265625 -0.28125 -0.65625zm7.772751 8.546875l0 -3.78125q0 -0.8125 -0.234375 -1.171875q-0.234375 -0.359375 -0.796875 -0.359375q-0.5 0 -0.84375 0.28125q-0.328125 0.28125 -0.46875 0.71875l0 4.3125l-1.734375 0l0 -6.65625l1.359375 0l0.203125 0.875l0.0625 0q0.296875 -0.421875 0.796875 -0.734375q0.515625 -0.328125 1.3125 -0.328125q0.5 0 0.875 0.140625q0.390625 0.125 0.65625 0.4375q0.265625 0.296875 0.40625 0.828125q0.140625 0.515625 0.140625 1.296875l0 4.140625l-1.734375 0zm5.482544 -3.171875l0.234375 1.03125l0.0625 0l0.1875 -1.0625l1.125 -3.453125l1.875 0l-2.78125 6.71875l-1.0625 0l-2.890625 -6.71875l2.015625 0l1.234375 3.484375z" fill-rule="nonzero"/><path fill="#000000" fill-opacity="0.0" d="m351.64334 198.17323l55.212616 0l0 35.55905l-55.212616 0z" fill-rule="evenodd"/><path fill="#a64d79" d="m366.00745 214.94197q-0.40625 -0.15625 -0.75 -0.15625q-0.46875 0 -0.78125 0.25q-0.3125 0.25 -0.40625 0.625l0 4.3125l-1.734375 0l0 -6.65625l1.34375 0l0.203125 0.875l0.046875 0q0.21875 -0.5 0.609375 -0.765625q0.390625 -0.265625 0.90625 -0.265625q0.34375 0 0.796875 0.15625l-0.234375 1.625zm3.4594116 3.75q0.8125 0 1.25 -0.4375q0.4375 -0.4375 0.4375 -1.0625q0 -0.765625 -0.453125 -1.125q-0.453125 -0.359375 -1.421875 -0.359375l-0.96875 0l0 -0.921875l1.609375 -2.203125l0.765625 -0.59375l-1.046875 0.125l-2.25 0l0 -1.46875l5.09375 0l0 0.9375l-1.875 2.53125l-0.59375 0.359375l0 0.0625l0.5625 -0.078125q0.46875 0.03125 0.890625 0.21875q0.421875 0.171875 0.734375 0.5q0.3125 0.3125 0.5 0.796875q0.1875 0.484375 0.1875 1.109375q0 0.78125 -0.265625 1.359375q-0.25 0.578125 -0.71875 0.96875q-0.453125 0.375 -1.078125 0.5625q-0.609375 0.1875 -1.3125 0.1875q-0.59375 0 -1.21875 -0.109375q-0.625 -0.109375 -1.0 -0.3125l0.453125 -1.4375q0.359375 0.171875 0.765625 0.28125q0.421875 0.109375 0.953125 0.109375zm4.3382874 2.84375l5.921875 0l0 1.421875l-5.921875 0l0 -1.421875zm6.8239136 -8.21875l1.734375 0l0 6.65625l-1.734375 0l0 -6.65625zm-0.25 -1.890625q0 -0.390625 0.28125 -0.65625q0.296875 -0.265625 0.796875 -0.265625q0.515625 0 0.828125 0.265625q0.3125 0.265625 0.3125 0.65625q0 0.390625 -0.3125 0.65625q-0.3125 0.25 -0.828125 0.25q-0.5 0 -0.796875 -0.25q-0.28125 -0.265625 -0.28125 -0.65625zm7.7727356 8.546875l0 -3.78125q0 -0.8125 -0.234375 -1.171875q-0.234375 -0.359375 -0.796875 -0.359375q-0.5 0 -0.84375 0.28125q-0.328125 0.28125 -0.46875 0.71875l0 4.3125l-1.734375 0l0 -6.65625l1.359375 0l0.203125 0.875l0.0625 0q0.296875 -0.421875 0.796875 -0.734375q0.515625 -0.328125 1.3125 -0.328125q0.5 0 0.875 0.140625q0.390625 0.125 0.65625 0.4375q0.265625 0.296875 0.40625 0.828125q0.140625 0.515625 0.140625 1.296875l0 4.140625l-1.734375 0zm5.482544 -3.171875l0.234375 1.03125l0.0625 0l0.1875 -1.0625l1.125 -3.453125l1.875 0l-2.78125 6.71875l-1.0625 0l-2.890625 -6.71875l2.015625 0l1.234375 3.484375z" fill-rule="nonzero"/><path fill="#b4a7d6" d="m571.17053 181.09666l0 0c0 -6.314316 4.8861084 -11.433075 10.913391 -11.433075l0 0c2.8944092 0 5.670288 1.2045593 7.716919 3.3486786c2.0466309 2.144104 3.1964722 5.0521545 3.1964722 8.084396l0 0c0 6.314316 -4.8861084 11.433075 -10.913391 11.433075l0 0c-6.0272827 0 -10.913391 -5.118759 -10.913391 -11.433075z" fill-rule="evenodd"/><path stroke="#351c75" stroke-width="2.0" stroke-linejoin="round" stroke-linecap="butt" d="m571.17053 181.09666l0 0c0 -6.314316 4.8861084 -11.433075 10.913391 -11.433075l0 0c2.8944092 0 5.670288 1.2045593 7.716919 3.3486786c2.0466309 2.144104 3.1964722 5.0521545 3.1964722 8.084396l0 0c0 6.314316 -4.8861084 11.433075 -10.913391 11.433075l0 0c-6.0272827 0 -10.913391 -5.118759 -10.913391 -11.433075z" fill-rule="evenodd"/><path fill="#a4c2f4" d="m618.4594 181.09634l0 0c0 -6.314316 4.8861084 -11.433075 10.913391 -11.433075l0 0c2.8944092 0 5.670288 1.2045441 7.716919 3.3486633c2.0466309 2.1441193 3.1964722 5.05217 3.1964722 8.084412l0 0c0 6.3143005 -4.8861084 11.43306 -10.913391 11.43306l0 0c-6.0272827 0 -10.913391 -5.118759 -10.913391 -11.43306z" fill-rule="evenodd"/><path stroke="#1155cc" stroke-width="2.0" stroke-linejoin="round" stroke-linecap="butt" d="m618.4594 181.09634l0 0c0 -6.314316 4.8861084 -11.433075 10.913391 -11.433075l0 0c2.8944092 0 5.670288 1.2045441 7.716919 3.3486633c2.0466309 2.1441193 3.1964722 5.05217 3.1964722 8.084412l0 0c0 6.3143005 -4.8861084 11.43306 -10.913391 11.43306l0 0c-6.0272827 0 -10.913391 -5.118759 -10.913391 -11.43306z" fill-rule="evenodd"/><path fill="#a2c4c9" d="m665.7481 181.09634l0 0c0 -6.314316 4.8861084 -11.433075 10.913391 -11.433075l0 0c2.8944092 0 5.670288 1.2045441 7.716919 3.3486633c2.046692 2.1441193 3.1964722 5.05217 3.1964722 8.084412l0 0c0 6.3143005 -4.8861084 11.43306 -10.913391 11.43306l0 0c-6.0272827 0 -10.913391 -5.118759 -10.913391 -11.43306z" fill-rule="evenodd"/><path stroke="#45818e" stroke-width="2.0" stroke-linejoin="round" stroke-linecap="butt" d="m665.7481 181.09634l0 0c0 -6.314316 4.8861084 -11.433075 10.913391 -11.433075l0 0c2.8944092 0 5.670288 1.2045441 7.716919 3.3486633c2.046692 2.1441193 3.1964722 5.05217 3.1964722 8.084412l0 0c0 6.3143005 -4.8861084 11.43306 -10.913391 11.43306l0 0c-6.0272827 0 -10.913391 -5.118759 -10.913391 -11.43306z" fill-rule="evenodd"/><path fill="#000000" fill-opacity="0.0" d="m82.585304 127.0538l43.71653 0l0 35.55905l-43.71653 0z" fill-rule="evenodd"/><path fill="#3c78d8" d="m98.078445 142.57256q0.53125 -0.234375 1.265625 -0.375q0.734375 -0.140625 1.53125 -0.140625q0.703125 0 1.15625 0.171875q0.46875 0.15625 0.734375 0.46875q0.28125 0.3125 0.390625 0.734375q0.125 0.421875 0.125 0.953125q0 0.59375 -0.046875 1.1875q-0.03125 0.59375 -0.046875 1.171875q0 0.5625 0.03125 1.109375q0.046875 0.53125 0.203125 1.015625l-1.40625 0l-0.28125 -0.921875l-0.0625 0q-0.28125 0.40625 -0.75 0.71875q-0.46875 0.296875 -1.21875 0.296875q-0.46875 0 -0.84375 -0.140625q-0.359375 -0.140625 -0.640625 -0.390625q-0.265625 -0.265625 -0.40625 -0.625q-0.140625 -0.359375 -0.140625 -0.796875q0 -0.609375 0.265625 -1.03125q0.28125 -0.421875 0.78125 -0.671875q0.515625 -0.265625 1.234375 -0.359375q0.71875 -0.109375 1.59375 -0.0625q0.09375 -0.75 -0.109375 -1.078125q-0.203125 -0.328125 -0.890625 -0.328125q-0.515625 0 -1.109375 0.109375q-0.578125 0.109375 -0.9375 0.28125l-0.421875 -1.296875zm2.203125 4.96875q0.515625 0 0.8125 -0.234375q0.3125 -0.234375 0.46875 -0.5l0 -0.875q-0.421875 -0.03125 -0.796875 0q-0.375 0.015625 -0.671875 0.109375q-0.296875 0.09375 -0.46875 0.265625q-0.171875 0.171875 -0.171875 0.4375q0 0.375 0.21875 0.59375q0.21875 0.203125 0.609375 0.203125zm5.032608 -0.15625l1.859375 0l0 -5.265625l0.203125 -0.90625l-0.640625 0.796875l-1.1875 0.8125l-0.734375 -1.0l3.03125 -2.453125l0.96875 0l0 8.015625l1.8125 0l0 1.46875l-5.3125 0l0 -1.46875z" fill-rule="nonzero"/><path fill="#000000" fill-opacity="0.0" d="m252.06299 16.140419l43.716553 0l0 35.559055l-43.716553 0z" fill-rule="evenodd"/><path fill="#45818e" d="m267.55612 31.659168q0.53125 -0.234375 1.265625 -0.375q0.734375 -0.140625 1.53125 -0.140625q0.703125 0 1.15625 0.171875q0.46875 0.15625 0.734375 0.46875q0.28125 0.3125 0.390625 0.734375q0.125 0.421875 0.125 0.953125q0 0.59375 -0.046875 1.1875q-0.03125 0.59375 -0.046875 1.171875q0 0.5625 0.03125 1.109375q0.046875 0.53125 0.203125 1.015625l-1.40625 0l-0.28125 -0.921875l-0.0625 0q-0.28125 0.40625 -0.75 0.71875q-0.46875 0.296875 -1.21875 0.296875q-0.46875 0 -0.84375 -0.140625q-0.359375 -0.140625 -0.640625 -0.390625q-0.265625 -0.265625 -0.40625 -0.625q-0.140625 -0.359375 -0.140625 -0.796875q0 -0.609375 0.265625 -1.03125q0.28125 -0.421875 0.78125 -0.671875q0.515625 -0.265625 1.234375 -0.359375q0.71875 -0.109375 1.59375 -0.0625q0.09375 -0.75 -0.109375 -1.078125q-0.203125 -0.328125 -0.890625 -0.328125q-0.515625 0 -1.109375 0.109375q-0.578125 0.109375 -0.9375 0.28125l-0.421875 -1.296875zm2.203125 4.96875q0.515625 0 0.8125 -0.234375q0.3125 -0.234375 0.46875 -0.5l0 -0.875q-0.421875 -0.03125 -0.796875 0q-0.375 0.015625 -0.671875 0.109375q-0.296875 0.09375 -0.46875 0.265625q-0.171875 0.171875 -0.171875 0.4375q0 0.375 0.21875 0.59375q0.21875 0.203125 0.609375 0.203125zm10.016998 -5.734375q0 0.671875 -0.25 1.375q-0.234375 0.6875 -0.625 1.359375q-0.375 0.65625 -0.84375 1.28125q-0.453125 0.625 -0.890625 1.140625l-0.703125 0.546875l0 0.0625l0.953125 -0.1875l2.5625 0l0 1.46875l-5.609375 0l0 -0.890625q0.3125 -0.328125 0.71875 -0.78125q0.40625 -0.453125 0.8125 -0.953125q0.40625 -0.5 0.78125 -1.03125q0.390625 -0.53125 0.6875 -1.0625q0.3125 -0.546875 0.484375 -1.046875q0.1875 -0.515625 0.1875 -0.96875q0 -0.546875 -0.3125 -0.890625q-0.3125 -0.359375 -0.984375 -0.359375q-0.4375 0 -0.890625 0.1875q-0.4375 0.171875 -0.734375 0.453125l-0.703125 -1.21875q0.53125 -0.4375 1.1875 -0.6875q0.65625 -0.265625 1.546875 -0.265625q0.578125 0 1.046875 0.15625q0.484375 0.15625 0.828125 0.46875q0.359375 0.3125 0.546875 0.78125q0.203125 0.453125 0.203125 1.0625z" fill-rule="nonzero"/><path fill="#000000" fill-opacity="0.0" d="m342.72177 114.00656l43.716553 0l0 35.55905l-43.716553 0z" fill-rule="evenodd"/><path fill="#674ea7" d="m358.21494 129.52531q0.53125 -0.234375 1.265625 -0.375q0.734375 -0.140625 1.53125 -0.140625q0.703125 0 1.15625 0.171875q0.46875 0.15625 0.734375 0.46875q0.28125 0.3125 0.390625 0.734375q0.125 0.421875 0.125 0.953125q0 0.59375 -0.046875 1.1875q-0.03125 0.59375 -0.046875 1.171875q0 0.5625 0.03125 1.109375q0.046875 0.53125 0.203125 1.015625l-1.40625 0l-0.28125 -0.921875l-0.0625 0q-0.28125 0.40625 -0.75 0.71875q-0.46875 0.296875 -1.21875 0.296875q-0.46875 0 -0.84375 -0.140625q-0.359375 -0.140625 -0.640625 -0.390625q-0.265625 -0.265625 -0.40625 -0.625q-0.140625 -0.359375 -0.140625 -0.796875q0 -0.609375 0.265625 -1.03125q0.28125 -0.421875 0.78125 -0.671875q0.515625 -0.265625 1.234375 -0.359375q0.71875 -0.109375 1.59375 -0.0625q0.09375 -0.75 -0.109375 -1.078125q-0.203125 -0.328125 -0.890625 -0.328125q-0.515625 0 -1.109375 0.109375q-0.578125 0.109375 -0.9375 0.28125l-0.421875 -1.296875zm2.203125 4.96875q0.515625 0 0.8125 -0.234375q0.3125 -0.234375 0.46875 -0.5l0 -0.875q-0.421875 -0.03125 -0.796875 0q-0.375 0.015625 -0.671875 0.109375q-0.296875 0.09375 -0.46875 0.265625q-0.171875 0.171875 -0.171875 0.4375q0 0.375 0.21875 0.59375q0.21875 0.203125 0.609375 0.203125zm6.907593 0.03125q0.8125 0 1.25 -0.4375q0.4375 -0.4375 0.4375 -1.0625q0 -0.765625 -0.453125 -1.125q-0.453125 -0.359375 -1.421875 -0.359375l-0.96875 0l0 -0.921875l1.609375 -2.203125l0.765625 -0.59375l-1.046875 0.125l-2.25 0l0 -1.46875l5.09375 0l0 0.9375l-1.875 2.53125l-0.59375 0.359375l0 0.0625l0.5625 -0.078125q0.46875 0.03125 0.890625 0.21875q0.421875 0.171875 0.734375 0.5q0.3125 0.3125 0.5 0.796875q0.1875 0.484375 0.1875 1.109375q0 0.78125 -0.265625 1.359375q-0.25 0.578125 -0.71875 0.96875q-0.453125 0.375 -1.078125 0.5625q-0.609375 0.1875 -1.3125 0.1875q-0.59375 0 -1.21875 -0.109375q-0.625 -0.109375 -1.0 -0.3125l0.453125 -1.4375q0.359375 0.171875 0.765625 0.28125q0.421875 0.109375 0.953125 0.109375z" fill-rule="nonzero"/><path fill="#000000" fill-opacity="0.0" d="m560.2257 188.84514l43.716553 0l0 35.559067l-43.716553 0z" fill-rule="evenodd"/><path fill="#674ea7" d="m575.7189 204.36389q0.53125 -0.234375 1.265625 -0.375q0.734375 -0.140625 1.53125 -0.140625q0.703125 0 1.15625 0.171875q0.46875 0.15625 0.734375 0.46875q0.28125 0.3125 0.390625 0.734375q0.125 0.421875 0.125 0.953125q0 0.59375 -0.046875 1.1875q-0.03125 0.59375 -0.046875 1.171875q0 0.5625 0.03125 1.109375q0.046875 0.53125 0.203125 1.015625l-1.40625 0l-0.28125 -0.921875l-0.0625 0q-0.28125 0.40625 -0.75 0.71875q-0.46875 0.296875 -1.21875 0.296875q-0.46875 0 -0.84375 -0.140625q-0.359375 -0.140625 -0.640625 -0.390625q-0.265625 -0.265625 -0.40625 -0.625q-0.140625 -0.359375 -0.140625 -0.796875q0 -0.609375 0.265625 -1.03125q0.28125 -0.421875 0.78125 -0.671875q0.515625 -0.265625 1.234375 -0.359375q0.71875 -0.109375 1.59375 -0.0625q0.09375 -0.75 -0.109375 -1.078125q-0.203125 -0.328125 -0.890625 -0.328125q-0.515625 0 -1.109375 0.109375q-0.578125 0.109375 -0.9375 0.28125l-0.421875 -1.296875zm2.203125 4.96875q0.515625 0 0.8125 -0.234375q0.3125 -0.234375 0.46875 -0.5l0 -0.875q-0.421875 -0.03125 -0.796875 0q-0.375 0.015625 -0.671875 0.109375q-0.296875 0.09375 -0.46875 0.265625q-0.171875 0.171875 -0.171875 0.4375q0 0.375 0.21875 0.59375q0.21875 0.203125 0.609375 0.203125zm6.907593 0.03125q0.8125 0 1.25 -0.4375q0.4375 -0.4375 0.4375 -1.0625q0 -0.765625 -0.453125 -1.125q-0.453125 -0.359375 -1.421875 -0.359375l-0.96875 0l0 -0.921875l1.609375 -2.203125l0.765625 -0.59375l-1.046875 0.125l-2.25 0l0 -1.46875l5.09375 0l0 0.9375l-1.875 2.53125l-0.59375 0.359375l0 0.0625l0.5625 -0.078125q0.46875 0.03125 0.890625 0.21875q0.421875 0.171875 0.734375 0.5q0.3125 0.3125 0.5 0.796875q0.1875 0.484375 0.1875 1.109375q0 0.78125 -0.265625 1.359375q-0.25 0.578125 -0.71875 0.96875q-0.453125 0.375 -1.078125 0.5625q-0.609375 0.1875 -1.3125 0.1875q-0.59375 0 -1.21875 -0.109375q-0.625 -0.109375 -1.0 -0.3125l0.453125 -1.4375q0.359375 0.171875 0.765625 0.28125q0.421875 0.109375 0.953125 0.109375z" fill-rule="nonzero"/><path fill="#000000" fill-opacity="0.0" d="m607.51447 188.84514l43.71649 0l0 35.559067l-43.71649 0z" fill-rule="evenodd"/><path fill="#3c78d8" d="m623.00757 204.36389q0.53125 -0.234375 1.265625 -0.375q0.734375 -0.140625 1.53125 -0.140625q0.703125 0 1.15625 0.171875q0.46875 0.15625 0.734375 0.46875q0.28125 0.3125 0.390625 0.734375q0.125 0.421875 0.125 0.953125q0 0.59375 -0.046875 1.1875q-0.03125 0.59375 -0.046875 1.171875q0 0.5625 0.03125 1.109375q0.046875 0.53125 0.203125 1.015625l-1.40625 0l-0.28125 -0.921875l-0.0625 0q-0.28125 0.40625 -0.75 0.71875q-0.46875 0.296875 -1.21875 0.296875q-0.46875 0 -0.84375 -0.140625q-0.359375 -0.140625 -0.640625 -0.390625q-0.265625 -0.265625 -0.40625 -0.625q-0.140625 -0.359375 -0.140625 -0.796875q0 -0.609375 0.265625 -1.03125q0.28125 -0.421875 0.78125 -0.671875q0.515625 -0.265625 1.234375 -0.359375q0.71875 -0.109375 1.59375 -0.0625q0.09375 -0.75 -0.109375 -1.078125q-0.203125 -0.328125 -0.890625 -0.328125q-0.515625 0 -1.109375 0.109375q-0.578125 0.109375 -0.9375 0.28125l-0.421875 -1.296875zm2.203125 4.96875q0.515625 0 0.8125 -0.234375q0.3125 -0.234375 0.46875 -0.5l0 -0.875q-0.421875 -0.03125 -0.796875 0q-0.375 0.015625 -0.671875 0.109375q-0.296875 0.09375 -0.46875 0.265625q-0.171875 0.171875 -0.171875 0.4375q0 0.375 0.21875 0.59375q0.21875 0.203125 0.609375 0.203125zm5.032593 -0.15625l1.859375 0l0 -5.265625l0.203125 -0.90625l-0.640625 0.796875l-1.1875 0.8125l-0.734375 -1.0l3.03125 -2.453125l0.96875 0l0 8.015625l1.8125 0l0 1.46875l-5.3125 0l0 -1.46875z" fill-rule="nonzero"/><path fill="#000000" fill-opacity="0.0" d="m654.80316 188.84514l43.716553 0l0 35.559067l-43.716553 0z" fill-rule="evenodd"/><path fill="#45818e" d="m670.29626 204.36389q0.53125 -0.234375 1.265625 -0.375q0.734375 -0.140625 1.53125 -0.140625q0.703125 0 1.15625 0.171875q0.46875 0.15625 0.734375 0.46875q0.28125 0.3125 0.390625 0.734375q0.125 0.421875 0.125 0.953125q0 0.59375 -0.046875 1.1875q-0.03125 0.59375 -0.046875 1.171875q0 0.5625 0.03125 1.109375q0.046875 0.53125 0.203125 1.015625l-1.40625 0l-0.28125 -0.921875l-0.0625 0q-0.28125 0.40625 -0.75 0.71875q-0.46875 0.296875 -1.21875 0.296875q-0.46875 0 -0.84375 -0.140625q-0.359375 -0.140625 -0.640625 -0.390625q-0.265625 -0.265625 -0.40625 -0.625q-0.140625 -0.359375 -0.140625 -0.796875q0 -0.609375 0.265625 -1.03125q0.28125 -0.421875 0.78125 -0.671875q0.515625 -0.265625 1.234375 -0.359375q0.71875 -0.109375 1.59375 -0.0625q0.09375 -0.75 -0.109375 -1.078125q-0.203125 -0.328125 -0.890625 -0.328125q-0.515625 0 -1.109375 0.109375q-0.578125 0.109375 -0.9375 0.28125l-0.421875 -1.296875zm2.203125 4.96875q0.515625 0 0.8125 -0.234375q0.3125 -0.234375 0.46875 -0.5l0 -0.875q-0.421875 -0.03125 -0.796875 0q-0.375 0.015625 -0.671875 0.109375q-0.296875 0.09375 -0.46875 0.265625q-0.171875 0.171875 -0.171875 0.4375q0 0.375 0.21875 0.59375q0.21875 0.203125 0.609375 0.203125zm10.017029 -5.734375q0 0.671875 -0.25 1.375q-0.234375 0.6875 -0.625 1.359375q-0.375 0.65625 -0.84375 1.28125q-0.453125 0.625 -0.890625 1.140625l-0.703125 0.546875l0 0.0625l0.953125 -0.1875l2.5625 0l0 1.46875l-5.609375 0l0 -0.890625q0.3125 -0.328125 0.71875 -0.78125q0.40625 -0.453125 0.8125 -0.953125q0.40625 -0.5 0.78125 -1.03125q0.390625 -0.53125 0.6875 -1.0625q0.3125 -0.546875 0.484375 -1.046875q0.1875 -0.515625 0.1875 -0.96875q0 -0.546875 -0.3125 -0.890625q-0.3125 -0.359375 -0.984375 -0.359375q-0.4375 0 -0.890625 0.1875q-0.4375 0.171875 -0.734375 0.453125l-0.703125 -1.21875q0.53125 -0.4375 1.1875 -0.6875q0.65625 -0.265625 1.546875 -0.265625q0.578125 0 1.046875 0.15625q0.484375 0.15625 0.828125 0.46875q0.359375 0.3125 0.546875 0.78125q0.203125 0.453125 0.203125 1.0625z" fill-rule="nonzero"/><path fill="#000000" fill-opacity="0.0" d="m553.8228 241.31233l159.4961 0l0 77.574814l-159.4961 0z" fill-rule="evenodd"/><path fill="#000000" d="m588.558 265.20358q-0.484375 0.375 -1.21875 0.515625q-0.734375 0.140625 -1.5625 0.140625q-1.015625 0 -1.90625 -0.34375q-0.875 -0.34375 -1.53125 -1.046875q-0.65625 -0.703125 -1.046875 -1.796875q-0.375 -1.09375 -0.375 -2.59375q0 -1.578125 0.421875 -2.671875q0.4375 -1.09375 1.125 -1.78125q0.703125 -0.703125 1.5625 -1.015625q0.859375 -0.328125 1.765625 -0.328125q0.953125 0 1.5625 0.109375q0.609375 0.09375 1.046875 0.265625l-0.328125 1.171875q-0.765625 -0.359375 -2.1875 -0.359375q-0.65625 0 -1.296875 0.234375q-0.640625 0.234375 -1.15625 0.78125q-0.5 0.546875 -0.8125 1.4375q-0.296875 0.875 -0.296875 2.15625q0 1.140625 0.28125 2.015625q0.296875 0.859375 0.796875 1.4375q0.515625 0.578125 1.1875 0.875q0.6875 0.28125 1.484375 0.28125q0.71875 0 1.25 -0.140625q0.546875 -0.15625 0.90625 -0.375l0.328125 1.03125zm3.2610474 -1.5q0 0.5625 0.1875 0.8125q0.203125 0.234375 0.546875 0.234375q0.203125 0 0.4375 -0.03125q0.25 -0.03125 0.5625 -0.15625l0.140625 1.015625q-0.265625 0.125 -0.71875 0.203125q-0.453125 0.078125 -0.78125 0.078125q-0.734375 0 -1.203125 -0.40625q-0.453125 -0.40625 -0.453125 -1.375l0 -9.609375l1.28125 0l0 9.234375zm2.796997 -2.03125q0 -2.03125 0.90625 -3.109375q0.90625 -1.078125 2.59375 -1.078125q0.90625 0 1.5625 0.296875q0.671875 0.296875 1.09375 0.84375q0.4375 0.546875 0.640625 1.328125q0.21875 0.78125 0.21875 1.71875q0 2.03125 -0.90625 3.109375q-0.90625 1.078125 -2.609375 1.078125q-0.890625 0 -1.5625 -0.296875q-0.65625 -0.296875 -1.09375 -0.84375q-0.421875 -0.546875 -0.640625 -1.328125q-0.203125 -0.78125 -0.203125 -1.71875zm1.328125 0q0 0.609375 0.125 1.171875q0.125 0.5625 0.375 0.984375q0.25 0.40625 0.671875 0.671875q0.421875 0.25 1.0 0.25q2.1875 0.015625 2.1875 -3.078125q0 -0.625 -0.125 -1.1875q-0.125 -0.5625 -0.375 -0.96875q-0.25 -0.421875 -0.671875 -0.671875q-0.421875 -0.25 -1.015625 -0.25q-2.171875 -0.015625 -2.171875 3.078125zm11.216675 1.828125q0 -0.484375 -0.296875 -0.75q-0.28125 -0.28125 -0.703125 -0.453125q-0.421875 -0.1875 -0.9375 -0.359375q-0.5 -0.171875 -0.921875 -0.4375q-0.421875 -0.265625 -0.71875 -0.671875q-0.28125 -0.421875 -0.28125 -1.125q0 -1.15625 0.65625 -1.6875q0.65625 -0.53125 1.828125 -0.53125q0.859375 0 1.4375 0.15625q0.59375 0.140625 1.03125 0.34375l-0.3125 1.0625q-0.359375 -0.171875 -0.890625 -0.3125q-0.515625 -0.140625 -1.109375 -0.140625q-0.703125 0 -1.03125 0.25q-0.328125 0.234375 -0.328125 0.828125q0 0.421875 0.28125 0.65625q0.296875 0.21875 0.71875 0.40625q0.421875 0.1875 0.921875 0.359375q0.515625 0.171875 0.9375 0.46875q0.421875 0.28125 0.703125 0.734375q0.296875 0.4375 0.296875 1.15625q0 0.5 -0.171875 0.953125q-0.15625 0.453125 -0.515625 0.78125q-0.359375 0.3125 -0.875 0.484375q-0.515625 0.1875 -1.21875 0.1875q-0.90625 0 -1.546875 -0.171875q-0.640625 -0.171875 -1.078125 -0.421875l0.390625 -1.078125q0.359375 0.203125 0.953125 0.390625q0.59375 0.171875 1.203125 0.171875q0.6875 0 1.125 -0.265625q0.453125 -0.28125 0.453125 -0.984375zm9.064087 1.53125q-0.484375 0.390625 -1.21875 0.609375q-0.71875 0.21875 -1.546875 0.21875q-0.90625 0 -1.578125 -0.296875q-0.671875 -0.296875 -1.109375 -0.84375q-0.421875 -0.546875 -0.640625 -1.3125q-0.203125 -0.78125 -0.203125 -1.734375q0 -2.046875 0.90625 -3.109375q0.921875 -1.078125 2.609375 -1.078125q0.546875 0 1.09375 0.125q0.546875 0.109375 0.96875 0.453125q0.4375 0.328125 0.703125 0.953125q0.28125 0.609375 0.28125 1.609375q0 0.53125 -0.09375 1.171875l-5.140625 0q0 0.703125 0.140625 1.25q0.15625 0.546875 0.453125 0.921875q0.3125 0.375 0.796875 0.578125q0.484375 0.203125 1.1875 0.203125q0.546875 0 1.078125 -0.1875q0.546875 -0.203125 0.828125 -0.453125l0.484375 0.921875zm-2.765625 -6.4375q-0.9375 0 -1.515625 0.5q-0.5625 0.5 -0.671875 1.703125l3.96875 0q0 -1.21875 -0.46875 -1.703125q-0.453125 -0.5 -1.3125 -0.5zm8.565552 4.90625q0 -0.484375 -0.296875 -0.75q-0.28125 -0.28125 -0.703125 -0.453125q-0.421875 -0.1875 -0.9375 -0.359375q-0.5 -0.171875 -0.921875 -0.4375q-0.421875 -0.265625 -0.71875 -0.671875q-0.28125 -0.421875 -0.28125 -1.125q0 -1.15625 0.65625 -1.6875q0.65625 -0.53125 1.828125 -0.53125q0.859375 0 1.4375 0.15625q0.59375 0.140625 1.03125 0.34375l-0.3125 1.0625q-0.359375 -0.171875 -0.890625 -0.3125q-0.515625 -0.140625 -1.109375 -0.140625q-0.703125 0 -1.03125 0.25q-0.328125 0.234375 -0.328125 0.828125q0 0.421875 0.28125 0.65625q0.296875 0.21875 0.71875 0.40625q0.421875 0.1875 0.921875 0.359375q0.515625 0.171875 0.9375 0.46875q0.421875 0.28125 0.703125 0.734375q0.296875 0.4375 0.296875 1.15625q0 0.5 -0.171875 0.953125q-0.15625 0.453125 -0.515625 0.78125q-0.359375 0.3125 -0.875 0.484375q-0.515625 0.1875 -1.21875 0.1875q-0.90625 0 -1.546875 -0.171875q-0.640625 -0.171875 -1.078125 -0.421875l0.390625 -1.078125q0.359375 0.203125 0.953125 0.390625q0.59375 0.171875 1.203125 0.171875q0.6875 0 1.125 -0.265625q0.453125 -0.28125 0.453125 -0.984375zm2.157898 -5.828125l1.25 0l0 -1.578125l1.28125 -0.375l0 1.953125l2.171875 0l0 1.125l-2.171875 0l0 4.421875q0 0.84375 0.203125 1.1875q0.21875 0.34375 0.703125 0.34375q0.421875 0 0.703125 -0.09375q0.296875 -0.09375 0.640625 -0.234375l0.296875 0.984375q-0.4375 0.203125 -0.953125 0.328125q-0.5 0.125 -1.09375 0.125q-0.984375 0 -1.390625 -0.546875q-0.390625 -0.546875 -0.390625 -1.84375l0 -4.671875l-1.25 0l0 -1.125zm10.633484 0.59375q0.609375 -0.375 1.40625 -0.546875q0.8125 -0.171875 1.6875 -0.171875q0.84375 0 1.34375 0.21875q0.5 0.21875 0.765625 0.59375q0.265625 0.359375 0.34375 0.796875q0.09375 0.421875 0.09375 0.859375q0 0.953125 -0.046875 1.875q-0.046875 0.90625 -0.046875 1.71875q0 0.59375 0.046875 1.125q0.046875 0.515625 0.171875 0.96875l-0.9375 0l-0.34375 -1.125l-0.078125 0q-0.140625 0.234375 -0.359375 0.453125q-0.21875 0.203125 -0.515625 0.375q-0.296875 0.171875 -0.703125 0.28125q-0.40625 0.109375 -0.90625 0.109375q-0.515625 0 -0.96875 -0.15625q-0.4375 -0.15625 -0.765625 -0.453125q-0.3125 -0.296875 -0.5 -0.703125q-0.171875 -0.421875 -0.171875 -0.953125q0 -0.703125 0.28125 -1.171875q0.296875 -0.484375 0.8125 -0.765625q0.515625 -0.28125 1.25 -0.390625q0.734375 -0.125 1.609375 -0.125q0.21875 0 0.4375 0q0.21875 0 0.4375 0.03125q0.046875 -0.484375 0.046875 -0.859375q0 -0.875 -0.359375 -1.234375q-0.34375 -0.359375 -1.265625 -0.359375q-0.28125 0 -0.59375 0.046875q-0.3125 0.046875 -0.640625 0.125q-0.328125 0.0625 -0.625 0.171875q-0.28125 0.09375 -0.515625 0.21875l-0.390625 -0.953125zm2.265625 6.421875q0.453125 0 0.796875 -0.125q0.359375 -0.125 0.609375 -0.296875q0.265625 -0.1875 0.421875 -0.40625q0.171875 -0.234375 0.25 -0.4375l0 -1.328125q-0.21875 -0.015625 -0.453125 -0.015625q-0.234375 -0.015625 -0.453125 -0.015625q-0.5 0 -0.96875 0.0625q-0.46875 0.046875 -0.828125 0.203125q-0.359375 0.140625 -0.578125 0.40625q-0.21875 0.265625 -0.21875 0.671875q0 0.546875 0.390625 0.921875q0.40625 0.359375 1.03125 0.359375zm10.936035 0.984375l0 -4.5625q0 -1.25 -0.375 -1.875q-0.359375 -0.640625 -1.3125 -0.640625q-0.84375 0 -1.40625 0.46875q-0.546875 0.453125 -0.765625 1.140625l0 5.46875l-1.28125 0l0 -8.0l0.890625 0l0.25 0.96875l0.0625 0q0.375 -0.5 1.015625 -0.828125q0.65625 -0.328125 1.5625 -0.328125q0.640625 0 1.140625 0.15625q0.5 0.140625 0.828125 0.53125q0.328125 0.375 0.484375 1.03125q0.171875 0.640625 0.171875 1.640625l0 4.828125l-1.265625 0zm9.064514 -0.53125q-0.484375 0.359375 -1.140625 0.53125q-0.65625 0.1875 -1.375 0.1875q-0.921875 0 -1.5625 -0.296875q-0.640625 -0.296875 -1.046875 -0.84375q-0.40625 -0.546875 -0.59375 -1.328125q-0.1875 -0.78125 -0.1875 -1.71875q0 -2.03125 0.890625 -3.109375q0.90625 -1.078125 2.578125 -1.078125q0.78125 0 1.3125 0.125q0.53125 0.109375 0.96875 0.328125l-0.375 1.109375q-0.359375 -0.203125 -0.8125 -0.328125q-0.453125 -0.125 -0.953125 -0.125q-2.28125 0 -2.28125 3.078125q0 0.609375 0.125 1.171875q0.125 0.546875 0.390625 0.96875q0.28125 0.421875 0.734375 0.6875q0.46875 0.25 1.140625 0.25q0.578125 0 1.03125 -0.171875q0.453125 -0.1875 0.734375 -0.40625l0.421875 0.96875zm6.9035034 0.53125l0 -4.5625q0 -0.625 -0.078125 -1.09375q-0.078125 -0.46875 -0.265625 -0.78125q-0.1875 -0.3125 -0.515625 -0.46875q-0.328125 -0.171875 -0.859375 -0.171875q-0.75 0 -1.359375 0.5q-0.609375 0.484375 -0.78125 1.25l0 5.328125l-1.28125 0l0 -11.203125l1.28125 0l0 4.09375l0.0625 0q0.40625 -0.484375 0.984375 -0.78125q0.59375 -0.296875 1.46875 -0.296875q0.671875 0 1.15625 0.15625q0.5 0.140625 0.828125 0.53125q0.328125 0.375 0.46875 1.03125q0.15625 0.640625 0.15625 1.640625l0 4.828125l-1.265625 0zm3.1582642 -4.0q0 -2.03125 0.90625 -3.109375q0.90625 -1.078125 2.59375 -1.078125q0.90625 0 1.5625 0.296875q0.671875 0.296875 1.09375 0.84375q0.4375 0.546875 0.640625 1.328125q0.21875 0.78125 0.21875 1.71875q0 2.03125 -0.90625 3.109375q-0.90625 1.078125 -2.609375 1.078125q-0.890625 0 -1.5625 -0.296875q-0.65625 -0.296875 -1.09375 -0.84375q-0.421875 -0.546875 -0.640625 -1.328125q-0.203125 -0.78125 -0.203125 -1.71875zm1.328125 0q0 0.609375 0.125 1.171875q0.125 0.5625 0.375 0.984375q0.25 0.40625 0.671875 0.671875q0.421875 0.25 1.0 0.25q2.1875 0.015625 2.1875 -3.078125q0 -0.625 -0.125 -1.1875q-0.125 -0.5625 -0.375 -0.96875q-0.25 -0.421875 -0.671875 -0.671875q-0.421875 -0.25 -1.015625 -0.25q-2.171875 -0.015625 -2.171875 3.078125zm11.4823 -2.765625q-0.484375 -0.15625 -0.921875 -0.15625q-0.6875 0 -1.09375 0.375q-0.390625 0.375 -0.484375 0.953125l0 5.59375l-1.28125 0l0 -8.0l0.890625 0l0.25 0.96875l0.0625 0q0.296875 -0.53125 0.71875 -0.828125q0.421875 -0.296875 1.078125 -0.296875q0.46875 0 1.046875 0.15625l-0.265625 1.234375zm5.1743774 4.59375q0 -0.484375 -0.296875 -0.75q-0.28125 -0.28125 -0.703125 -0.453125q-0.421875 -0.1875 -0.9375 -0.359375q-0.5 -0.171875 -0.921875 -0.4375q-0.421875 -0.265625 -0.71875 -0.671875q-0.28125 -0.421875 -0.28125 -1.125q0 -1.15625 0.65625 -1.6875q0.65625 -0.53125 1.828125 -0.53125q0.859375 0 1.4375 0.15625q0.59375 0.140625 1.03125 0.34375l-0.3125 1.0625q-0.359375 -0.171875 -0.890625 -0.3125q-0.515625 -0.140625 -1.109375 -0.140625q-0.703125 0 -1.03125 0.25q-0.328125 0.234375 -0.328125 0.828125q0 0.421875 0.28125 0.65625q0.296875 0.21875 0.71875 0.40625q0.421875 0.1875 0.921875 0.359375q0.515625 0.171875 0.9375 0.46875q0.421875 0.28125 0.703125 0.734375q0.296875 0.4375 0.296875 1.15625q0 0.5 -0.171875 0.953125q-0.15625 0.453125 -0.515625 0.78125q-0.359375 0.3125 -0.875 0.484375q-0.515625 0.1875 -1.21875 0.1875q-0.90625 0 -1.546875 -0.171875q-0.640625 -0.171875 -1.078125 -0.421875l0.390625 -1.078125q0.359375 0.203125 0.953125 0.390625q0.59375 0.171875 1.203125 0.171875q0.6875 0 1.125 -0.265625q0.453125 -0.28125 0.453125 -0.984375z" fill-rule="nonzero"/><path fill="#000000" d="m630.1715 278.88797l2.8125 0l0 -2.890625l1.15625 0l0 2.890625l2.8125 0l0 1.15625l-2.8125 0l0 2.875l-1.15625 0l0 -2.875l-2.8125 0l0 -1.15625z" fill-rule="nonzero"/><path fill="#000000" d="m582.34625 300.96295l-4.125 0l-1.125 3.109375l-1.3125 0l4.25 -11.375l0.59375 0l4.265625 11.375l-1.390625 0l-1.15625 -3.109375zm-3.703125 -1.140625l3.296875 0l-1.234375 -3.40625l-0.40625 -1.703125l-0.015625 0l-0.40625 1.734375l-1.234375 3.375zm12.75061 4.25l0 -4.5625q0 -1.25 -0.375 -1.875q-0.359375 -0.640625 -1.3125 -0.640625q-0.84375 0 -1.40625 0.46875q-0.546875 0.453125 -0.765625 1.140625l0 5.46875l-1.28125 0l0 -8.0l0.890625 0l0.25 0.96875l0.0625 0q0.375 -0.5 1.015625 -0.828125q0.65625 -0.328125 1.5625 -0.328125q0.640625 0 1.140625 0.15625q0.5 0.140625 0.828125 0.53125q0.328125 0.375 0.484375 1.03125q0.171875 0.640625 0.171875 1.640625l0 4.828125l-1.265625 0zm9.064514 -0.53125q-0.484375 0.359375 -1.140625 0.53125q-0.65625 0.1875 -1.375 0.1875q-0.921875 0 -1.5625 -0.296875q-0.640625 -0.296875 -1.046875 -0.84375q-0.40625 -0.546875 -0.59375 -1.328125q-0.1875 -0.78125 -0.1875 -1.71875q0 -2.03125 0.890625 -3.109375q0.90625 -1.078125 2.578125 -1.078125q0.78125 0 1.3125 0.125q0.53125 0.109375 0.96875 0.328125l-0.375 1.109375q-0.359375 -0.203125 -0.8125 -0.328125q-0.453125 -0.125 -0.953125 -0.125q-2.28125 0 -2.28125 3.078125q0 0.609375 0.125 1.171875q0.125 0.546875 0.390625 0.96875q0.28125 0.421875 0.734375 0.6875q0.46875 0.25 1.140625 0.25q0.578125 0 1.03125 -0.171875q0.453125 -0.1875 0.734375 -0.40625l0.421875 0.96875zm6.9035645 0.53125l0 -4.5625q0 -0.625 -0.078125 -1.09375q-0.078125 -0.46875 -0.265625 -0.78125q-0.1875 -0.3125 -0.515625 -0.46875q-0.328125 -0.171875 -0.859375 -0.171875q-0.75 0 -1.359375 0.5q-0.609375 0.484375 -0.78125 1.25l0 5.328125l-1.28125 0l0 -11.203125l1.28125 0l0 4.09375l0.0625 0q0.40625 -0.484375 0.984375 -0.78125q0.59375 -0.296875 1.46875 -0.296875q0.671875 0 1.15625 0.15625q0.5 0.140625 0.828125 0.53125q0.328125 0.375 0.46875 1.03125q0.15625 0.640625 0.15625 1.640625l0 4.828125l-1.265625 0zm3.1582642 -4.0q0 -2.03125 0.90625 -3.109375q0.90625 -1.078125 2.59375 -1.078125q0.90625 0 1.5625 0.296875q0.671875 0.296875 1.09375 0.84375q0.4375 0.546875 0.640625 1.328125q0.21875 0.78125 0.21875 1.71875q0 2.03125 -0.90625 3.109375q-0.90625 1.078125 -2.609375 1.078125q-0.890625 0 -1.5625 -0.296875q-0.65625 -0.296875 -1.09375 -0.84375q-0.421875 -0.546875 -0.640625 -1.328125q-0.203125 -0.78125 -0.203125 -1.71875zm1.328125 0q0 0.609375 0.125 1.171875q0.125 0.5625 0.375 0.984375q0.25 0.40625 0.671875 0.671875q0.421875 0.25 1.0 0.25q2.1875 0.015625 2.1875 -3.078125q0 -0.625 -0.125 -1.1875q-0.125 -0.5625 -0.375 -0.96875q-0.25 -0.421875 -0.671875 -0.671875q-0.421875 -0.25 -1.015625 -0.25q-2.171875 -0.015625 -2.171875 3.078125zm11.482239 -2.765625q-0.484375 -0.15625 -0.921875 -0.15625q-0.6875 0 -1.09375 0.375q-0.390625 0.375 -0.484375 0.953125l0 5.59375l-1.28125 0l0 -8.0l0.890625 0l0.25 0.96875l0.0625 0q0.296875 -0.53125 0.71875 -0.828125q0.421875 -0.296875 1.078125 -0.296875q0.46875 0 1.046875 0.15625l-0.265625 1.234375zm12.071411 4.015625q0 0.8125 0.015625 1.484375q0.015625 0.65625 0.140625 1.296875l-0.859375 0l-0.3125 -1.140625l-0.078125 0q-0.3125 0.5625 -0.921875 0.9375q-0.609375 0.359375 -1.421875 0.359375q-1.59375 0 -2.375 -1.0q-0.78125 -1.015625 -0.78125 -3.15625q0 -2.046875 0.96875 -3.109375q0.96875 -1.0625 2.671875 -1.0625q0.59375 0 0.9375 0.0625q0.34375 0.0625 0.734375 0.203125l0 -3.328125l1.28125 0l0 8.453125zm-3.234375 1.828125q0.8125 0 1.296875 -0.421875q0.484375 -0.4375 0.65625 -1.296875l0 -3.96875q-0.28125 -0.21875 -0.65625 -0.3125q-0.359375 -0.109375 -0.96875 -0.109375q-1.109375 0 -1.734375 0.734375q-0.625 0.734375 -0.625 2.328125q0 0.65625 0.09375 1.21875q0.109375 0.5625 0.34375 0.96875q0.25 0.390625 0.640625 0.625q0.390625 0.234375 0.953125 0.234375zm5.967407 -7.078125l1.28125 0l0 8.0l-1.28125 0l0 -8.0zm-0.265625 -2.4375q0 -0.359375 0.25 -0.625q0.25 -0.265625 0.625 -0.265625q0.390625 0 0.65625 0.265625q0.28125 0.265625 0.28125 0.625q0 0.375 -0.28125 0.625q-0.265625 0.234375 -0.65625 0.234375q-0.375 0 -0.625 -0.234375q-0.25 -0.25 -0.25 -0.625zm7.803589 8.265625q0 -0.484375 -0.296875 -0.75q-0.28125 -0.28125 -0.703125 -0.453125q-0.421875 -0.1875 -0.9375 -0.359375q-0.5 -0.171875 -0.921875 -0.4375q-0.421875 -0.265625 -0.71875 -0.671875q-0.28125 -0.421875 -0.28125 -1.125q0 -1.15625 0.65625 -1.6875q0.65625 -0.53125 1.828125 -0.53125q0.859375 0 1.4375 0.15625q0.59375 0.140625 1.03125 0.34375l-0.3125 1.0625q-0.359375 -0.171875 -0.890625 -0.3125q-0.515625 -0.140625 -1.109375 -0.140625q-0.703125 0 -1.03125 0.25q-0.328125 0.234375 -0.328125 0.828125q0 0.421875 0.28125 0.65625q0.296875 0.21875 0.71875 0.40625q0.421875 0.1875 0.921875 0.359375q0.515625 0.171875 0.9375 0.46875q0.421875 0.28125 0.703125 0.734375q0.296875 0.4375 0.296875 1.15625q0 0.5 -0.171875 0.953125q-0.15625 0.453125 -0.515625 0.78125q-0.359375 0.3125 -0.875 0.484375q-0.515625 0.1875 -1.21875 0.1875q-0.90625 0 -1.546875 -0.171875q-0.640625 -0.171875 -1.078125 -0.421875l0.390625 -1.078125q0.359375 0.203125 0.953125 0.390625q0.59375 0.171875 1.203125 0.171875q0.6875 0 1.125 -0.265625q0.453125 -0.28125 0.453125 -0.984375zm2.157898 -5.828125l1.25 0l0 -1.578125l1.28125 -0.375l0 1.953125l2.171875 0l0 1.125l-2.171875 0l0 4.421875q0 0.84375 0.203125 1.1875q0.21875 0.34375 0.703125 0.34375q0.421875 0 0.703125 -0.09375q0.296875 -0.09375 0.640625 -0.234375l0.296875 0.984375q-0.4375 0.203125 -0.953125 0.328125q-0.5 0.125 -1.09375 0.125q-0.984375 0 -1.390625 -0.546875q-0.390625 -0.546875 -0.390625 -1.84375l0 -4.671875l-1.25 0l0 -1.125zm6.361511 0.59375q0.609375 -0.375 1.40625 -0.546875q0.8125 -0.171875 1.6875 -0.171875q0.84375 0 1.34375 0.21875q0.5 0.21875 0.765625 0.59375q0.265625 0.359375 0.34375 0.796875q0.09375 0.421875 0.09375 0.859375q0 0.953125 -0.046875 1.875q-0.046875 0.90625 -0.046875 1.71875q0 0.59375 0.046875 1.125q0.046875 0.515625 0.171875 0.96875l-0.9375 0l-0.34375 -1.125l-0.078125 0q-0.140625 0.234375 -0.359375 0.453125q-0.21875 0.203125 -0.515625 0.375q-0.296875 0.171875 -0.703125 0.28125q-0.40625 0.109375 -0.90625 0.109375q-0.515625 0 -0.96875 -0.15625q-0.4375 -0.15625 -0.765625 -0.453125q-0.3125 -0.296875 -0.5 -0.703125q-0.171875 -0.421875 -0.171875 -0.953125q0 -0.703125 0.28125 -1.171875q0.296875 -0.484375 0.8125 -0.765625q0.515625 -0.28125 1.25 -0.390625q0.734375 -0.125 1.609375 -0.125q0.21875 0 0.4375 0q0.21875 0 0.4375 0.03125q0.046875 -0.484375 0.046875 -0.859375q0 -0.875 -0.359375 -1.234375q-0.34375 -0.359375 -1.265625 -0.359375q-0.28125 0 -0.59375 0.046875q-0.3125 0.046875 -0.640625 0.125q-0.328125 0.0625 -0.625 0.171875q-0.28125 0.09375 -0.515625 0.21875l-0.390625 -0.953125zm2.265625 6.421875q0.453125 0 0.796875 -0.125q0.359375 -0.125 0.609375 -0.296875q0.265625 -0.1875 0.421875 -0.40625q0.171875 -0.234375 0.25 -0.4375l0 -1.328125q-0.21875 -0.015625 -0.453125 -0.015625q-0.234375 -0.015625 -0.453125 -0.015625q-0.5 0 -0.96875 0.0625q-0.46875 0.046875 -0.828125 0.203125q-0.359375 0.140625 -0.578125 0.40625q-0.21875 0.265625 -0.21875 0.671875q0 0.546875 0.390625 0.921875q0.40625 0.359375 1.03125 0.359375zm10.936035 0.984375l0 -4.5625q0 -1.25 -0.375 -1.875q-0.359375 -0.640625 -1.3125 -0.640625q-0.84375 0 -1.40625 0.46875q-0.546875 0.453125 -0.765625 1.140625l0 5.46875l-1.28125 0l0 -8.0l0.890625 0l0.25 0.96875l0.0625 0q0.375 -0.5 1.015625 -0.828125q0.65625 -0.328125 1.5625 -0.328125q0.640625 0 1.140625 0.15625q0.5 0.140625 0.828125 0.53125q0.328125 0.375 0.484375 1.03125q0.171875 0.640625 0.171875 1.640625l0 4.828125l-1.265625 0zm9.064514 -0.53125q-0.484375 0.359375 -1.140625 0.53125q-0.65625 0.1875 -1.375 0.1875q-0.921875 0 -1.5625 -0.296875q-0.640625 -0.296875 -1.046875 -0.84375q-0.40625 -0.546875 -0.59375 -1.328125q-0.1875 -0.78125 -0.1875 -1.71875q0 -2.03125 0.890625 -3.109375q0.90625 -1.078125 2.578125 -1.078125q0.78125 0 1.3125 0.125q0.53125 0.109375 0.96875 0.328125l-0.375 1.109375q-0.359375 -0.203125 -0.8125 -0.328125q-0.453125 -0.125 -0.953125 -0.125q-2.28125 0 -2.28125 3.078125q0 0.609375 0.125 1.171875q0.125 0.546875 0.390625 0.96875q0.28125 0.421875 0.734375 0.6875q0.46875 0.25 1.140625 0.25q0.578125 0 1.03125 -0.171875q0.453125 -0.1875 0.734375 -0.40625l0.421875 0.96875zm7.2386475 -0.109375q-0.484375 0.390625 -1.21875 0.609375q-0.71875 0.21875 -1.546875 0.21875q-0.90625 0 -1.578125 -0.296875q-0.671875 -0.296875 -1.109375 -0.84375q-0.421875 -0.546875 -0.640625 -1.3125q-0.203125 -0.78125 -0.203125 -1.734375q0 -2.046875 0.90625 -3.109375q0.921875 -1.078125 2.609375 -1.078125q0.546875 0 1.09375 0.125q0.546875 0.109375 0.96875 0.453125q0.4375 0.328125 0.703125 0.953125q0.28125 0.609375 0.28125 1.609375q0 0.53125 -0.09375 1.171875l-5.140625 0q0 0.703125 0.140625 1.25q0.15625 0.546875 0.453125 0.921875q0.3125 0.375 0.796875 0.578125q0.484375 0.203125 1.1875 0.203125q0.546875 0 1.078125 -0.1875q0.546875 -0.203125 0.828125 -0.453125l0.484375 0.921875zm-2.765625 -6.4375q-0.9375 0 -1.515625 0.5q-0.5625 0.5 -0.671875 1.703125l3.96875 0q0 -1.21875 -0.46875 -1.703125q-0.453125 -0.5 -1.3125 -0.5zm8.565491 4.90625q0 -0.484375 -0.296875 -0.75q-0.28125 -0.28125 -0.703125 -0.453125q-0.421875 -0.1875 -0.9375 -0.359375q-0.5 -0.171875 -0.921875 -0.4375q-0.421875 -0.265625 -0.71875 -0.671875q-0.28125 -0.421875 -0.28125 -1.125q0 -1.15625 0.65625 -1.6875q0.65625 -0.53125 1.828125 -0.53125q0.859375 0 1.4375 0.15625q0.59375 0.140625 1.03125 0.34375l-0.3125 1.0625q-0.359375 -0.171875 -0.890625 -0.3125q-0.515625 -0.140625 -1.109375 -0.140625q-0.703125 0 -1.03125 0.25q-0.328125 0.234375 -0.328125 0.828125q0 0.421875 0.28125 0.65625q0.296875 0.21875 0.71875 0.40625q0.421875 0.1875 0.921875 0.359375q0.515625 0.171875 0.9375 0.46875q0.421875 0.28125 0.703125 0.734375q0.296875 0.4375 0.296875 1.15625q0 0.5 -0.171875 0.953125q-0.15625 0.453125 -0.515625 0.78125q-0.359375 0.3125 -0.875 0.484375q-0.515625 0.1875 -1.21875 0.1875q-0.90625 0 -1.546875 -0.171875q-0.640625 -0.171875 -1.078125 -0.421875l0.390625 -1.078125q0.359375 0.203125 0.953125 0.390625q0.59375 0.171875 1.203125 0.171875q0.6875 0 1.125 -0.265625q0.453125 -0.28125 0.453125 -0.984375z" fill-rule="nonzero"/><path fill="#000000" fill-opacity="0.0" d="m568.9895 212.0105l25.921265 0l0 35.55905l-25.921265 0z" fill-rule="evenodd"/><path fill="#674ea7" d="m579.33325 232.34175l1.859375 0l0 -5.265625l0.203125 -0.90625l-0.640625 0.796875l-1.1875 0.8125l-0.734375 -1.0l3.03125 -2.453125l0.96875 0l0 8.015625l1.8125 0l0 1.46875l-5.3125 0l0 -1.46875z" fill-rule="nonzero"/><path fill="#000000" fill-opacity="0.0" d="m706.3622 241.31233l159.4961 0l0 38.771652l-159.4961 0z" fill-rule="evenodd"/><path fill="#000000" d="m716.72156 254.57858q0.609375 -0.109375 1.390625 -0.171875q0.796875 -0.0625 1.453125 -0.0625q0.734375 0 1.390625 0.15625q0.671875 0.15625 1.171875 0.53125q0.515625 0.375 0.8125 0.96875q0.3125 0.578125 0.3125 1.4375q0 1.3125 -0.71875 2.125q-0.71875 0.8125 -1.828125 1.078125l0.765625 0.59375l2.78125 4.4375l-1.546875 0l-3.09375 -4.828125l-1.5625 -0.25l0 5.078125l-1.328125 0l0 -11.09375zm2.875 0.921875q-0.203125 0 -0.4375 0q-0.21875 0 -0.421875 0.015625q-0.203125 0.015625 -0.390625 0.03125q-0.1875 0.015625 -0.296875 0.046875l0 4.125l1.25 0q1.109375 0 1.828125 -0.546875q0.71875 -0.546875 0.71875 -1.6875q0 -0.875 -0.59375 -1.421875q-0.59375 -0.5625 -1.65625 -0.5625zm11.595764 9.53125q-0.484375 0.390625 -1.21875 0.609375q-0.71875 0.21875 -1.546875 0.21875q-0.90625 0 -1.578125 -0.296875q-0.671875 -0.296875 -1.109375 -0.84375q-0.421875 -0.546875 -0.640625 -1.3125q-0.203125 -0.78125 -0.203125 -1.734375q0 -2.046875 0.90625 -3.109375q0.921875 -1.078125 2.609375 -1.078125q0.546875 0 1.09375 0.125q0.546875 0.109375 0.96875 0.453125q0.4375 0.328125 0.703125 0.953125q0.28125 0.609375 0.28125 1.609375q0 0.53125 -0.09375 1.171875l-5.140625 0q0 0.703125 0.140625 1.25q0.15625 0.546875 0.453125 0.921875q0.3125 0.375 0.796875 0.578125q0.484375 0.203125 1.1875 0.203125q0.546875 0 1.078125 -0.1875q0.546875 -0.203125 0.828125 -0.453125l0.484375 0.921875zm-2.765625 -6.4375q-0.9375 0 -1.515625 0.5q-0.5625 0.5 -0.671875 1.703125l3.96875 0q0 -1.21875 -0.46875 -1.703125q-0.453125 -0.5 -1.3125 -0.5zm6.4718018 5.109375q0 0.5625 0.1875 0.8125q0.203125 0.234375 0.546875 0.234375q0.203125 0 0.4375 -0.03125q0.25 -0.03125 0.5625 -0.15625l0.140625 1.015625q-0.265625 0.125 -0.71875 0.203125q-0.453125 0.078125 -0.78125 0.078125q-0.734375 0 -1.203125 -0.40625q-0.453125 -0.40625 -0.453125 -1.375l0 -9.609375l1.28125 0l0 9.234375zm3.125122 -5.4375q0.609375 -0.375 1.40625 -0.546875q0.8125 -0.171875 1.6875 -0.171875q0.84375 0 1.34375 0.21875q0.5 0.21875 0.765625 0.59375q0.265625 0.359375 0.34375 0.796875q0.09375 0.421875 0.09375 0.859375q0 0.953125 -0.046875 1.875q-0.046875 0.90625 -0.046875 1.71875q0 0.59375 0.046875 1.125q0.046875 0.515625 0.171875 0.96875l-0.9375 0l-0.34375 -1.125l-0.078125 0q-0.140625 0.234375 -0.359375 0.453125q-0.21875 0.203125 -0.515625 0.375q-0.296875 0.171875 -0.703125 0.28125q-0.40625 0.109375 -0.90625 0.109375q-0.515625 0 -0.96875 -0.15625q-0.4375 -0.15625 -0.765625 -0.453125q-0.3125 -0.296875 -0.5 -0.703125q-0.171875 -0.421875 -0.171875 -0.953125q0 -0.703125 0.28125 -1.171875q0.296875 -0.484375 0.8125 -0.765625q0.515625 -0.28125 1.25 -0.390625q0.734375 -0.125 1.609375 -0.125q0.21875 0 0.4375 0q0.21875 0 0.4375 0.03125q0.046875 -0.484375 0.046875 -0.859375q0 -0.875 -0.359375 -1.234375q-0.34375 -0.359375 -1.265625 -0.359375q-0.28125 0 -0.59375 0.046875q-0.3125 0.046875 -0.640625 0.125q-0.328125 0.0625 -0.625 0.171875q-0.28125 0.09375 -0.515625 0.21875l-0.390625 -0.953125zm2.265625 6.421875q0.453125 0 0.796875 -0.125q0.359375 -0.125 0.609375 -0.296875q0.265625 -0.1875 0.421875 -0.40625q0.171875 -0.234375 0.25 -0.4375l0 -1.328125q-0.21875 -0.015625 -0.453125 -0.015625q-0.234375 -0.015625 -0.453125 -0.015625q-0.5 0 -0.96875 0.0625q-0.46875 0.046875 -0.828125 0.203125q-0.359375 0.140625 -0.578125 0.40625q-0.21875 0.265625 -0.21875 0.671875q0 0.546875 0.390625 0.921875q0.40625 0.359375 1.03125 0.359375zm4.73291 -7.015625l1.25 0l0 -1.578125l1.28125 -0.375l0 1.953125l2.171875 0l0 1.125l-2.171875 0l0 4.421875q0 0.84375 0.203125 1.1875q0.21875 0.34375 0.703125 0.34375q0.421875 0 0.703125 -0.09375q0.296875 -0.09375 0.640625 -0.234375l0.296875 0.984375q-0.4375 0.203125 -0.953125 0.328125q-0.5 0.125 -1.09375 0.125q-0.984375 0 -1.390625 -0.546875q-0.390625 -0.546875 -0.390625 -1.84375l0 -4.671875l-1.25 0l0 -1.125zm6.752136 0l1.28125 0l0 8.0l-1.28125 0l0 -8.0zm-0.265625 -2.4375q0 -0.359375 0.25 -0.625q0.25 -0.265625 0.625 -0.265625q0.390625 0 0.65625 0.265625q0.28125 0.265625 0.28125 0.625q0 0.375 -0.28125 0.625q-0.265625 0.234375 -0.65625 0.234375q-0.375 0 -0.625 -0.234375q-0.25 -0.25 -0.25 -0.625zm3.8349 6.4375q0 -2.03125 0.90625 -3.109375q0.90625 -1.078125 2.59375 -1.078125q0.90625 0 1.5625 0.296875q0.671875 0.296875 1.09375 0.84375q0.4375 0.546875 0.640625 1.328125q0.21875 0.78125 0.21875 1.71875q0 2.03125 -0.90625 3.109375q-0.90625 1.078125 -2.609375 1.078125q-0.890625 0 -1.5625 -0.296875q-0.65625 -0.296875 -1.09375 -0.84375q-0.421875 -0.546875 -0.640625 -1.328125q-0.203125 -0.78125 -0.203125 -1.71875zm1.328125 0q0 0.609375 0.125 1.171875q0.125 0.5625 0.375 0.984375q0.25 0.40625 0.671875 0.671875q0.421875 0.25 1.0 0.25q2.1875 0.015625 2.1875 -3.078125q0 -0.625 -0.125 -1.1875q-0.125 -0.5625 -0.375 -0.96875q-0.25 -0.421875 -0.671875 -0.671875q-0.421875 -0.25 -1.015625 -0.25q-2.171875 -0.015625 -2.171875 3.078125zm12.841614 4.0l0 -4.5625q0 -1.25 -0.375 -1.875q-0.359375 -0.640625 -1.3125 -0.640625q-0.84375 0 -1.40625 0.46875q-0.546875 0.453125 -0.765625 1.140625l0 5.46875l-1.28125 0l0 -8.0l0.890625 0l0.25 0.96875l0.0625 0q0.375 -0.5 1.015625 -0.828125q0.65625 -0.328125 1.5625 -0.328125q0.640625 0 1.140625 0.15625q0.5 0.140625 0.828125 0.53125q0.328125 0.375 0.484375 1.03125q0.171875 0.640625 0.171875 1.640625l0 4.828125l-1.265625 0zm3.4863892 -7.40625q0.609375 -0.375 1.40625 -0.546875q0.8125 -0.171875 1.6875 -0.171875q0.84375 0 1.34375 0.21875q0.5 0.21875 0.765625 0.59375q0.265625 0.359375 0.34375 0.796875q0.09375 0.421875 0.09375 0.859375q0 0.953125 -0.046875 1.875q-0.046875 0.90625 -0.046875 1.71875q0 0.59375 0.046875 1.125q0.046875 0.515625 0.171875 0.96875l-0.9375 0l-0.34375 -1.125l-0.078125 0q-0.140625 0.234375 -0.359375 0.453125q-0.21875 0.203125 -0.515625 0.375q-0.296875 0.171875 -0.703125 0.28125q-0.40625 0.109375 -0.90625 0.109375q-0.515625 0 -0.96875 -0.15625q-0.4375 -0.15625 -0.765625 -0.453125q-0.3125 -0.296875 -0.5 -0.703125q-0.171875 -0.421875 -0.171875 -0.953125q0 -0.703125 0.28125 -1.171875q0.296875 -0.484375 0.8125 -0.765625q0.515625 -0.28125 1.25 -0.390625q0.734375 -0.125 1.609375 -0.125q0.21875 0 0.4375 0q0.21875 0 0.4375 0.03125q0.046875 -0.484375 0.046875 -0.859375q0 -0.875 -0.359375 -1.234375q-0.34375 -0.359375 -1.265625 -0.359375q-0.28125 0 -0.59375 0.046875q-0.3125 0.046875 -0.640625 0.125q-0.328125 0.0625 -0.625 0.171875q-0.28125 0.09375 -0.515625 0.21875l-0.390625 -0.953125zm2.265625 6.421875q0.453125 0 0.796875 -0.125q0.359375 -0.125 0.609375 -0.296875q0.265625 -0.1875 0.421875 -0.40625q0.171875 -0.234375 0.25 -0.4375l0 -1.328125q-0.21875 -0.015625 -0.453125 -0.015625q-0.234375 -0.015625 -0.453125 -0.015625q-0.5 0 -0.96875 0.0625q-0.46875 0.046875 -0.828125 0.203125q-0.359375 0.140625 -0.578125 0.40625q-0.21875 0.265625 -0.21875 0.671875q0 0.546875 0.390625 0.921875q0.40625 0.359375 1.03125 0.359375zm7.217285 -0.984375q0 0.5625 0.1875 0.8125q0.203125 0.234375 0.546875 0.234375q0.203125 0 0.4375 -0.03125q0.25 -0.03125 0.5625 -0.15625l0.140625 1.015625q-0.265625 0.125 -0.71875 0.203125q-0.453125 0.078125 -0.78125 0.078125q-0.734375 0 -1.203125 -0.40625q-0.453125 -0.40625 -0.453125 -1.375l0 -9.609375l1.28125 0l0 9.234375zm12.975281 1.4375q-0.484375 0.359375 -1.140625 0.53125q-0.65625 0.1875 -1.375 0.1875q-0.921875 0 -1.5625 -0.296875q-0.640625 -0.296875 -1.046875 -0.84375q-0.40625 -0.546875 -0.59375 -1.328125q-0.1875 -0.78125 -0.1875 -1.71875q0 -2.03125 0.890625 -3.109375q0.90625 -1.078125 2.578125 -1.078125q0.78125 0 1.3125 0.125q0.53125 0.109375 0.96875 0.328125l-0.375 1.109375q-0.359375 -0.203125 -0.8125 -0.328125q-0.453125 -0.125 -0.953125 -0.125q-2.28125 0 -2.28125 3.078125q0 0.609375 0.125 1.171875q0.125 0.546875 0.390625 0.96875q0.28125 0.421875 0.734375 0.6875q0.46875 0.25 1.140625 0.25q0.578125 0 1.03125 -0.171875q0.453125 -0.1875 0.734375 -0.40625l0.421875 0.96875zm0.94177246 -3.46875q0 -2.03125 0.90625 -3.109375q0.90625 -1.078125 2.59375 -1.078125q0.90625 0 1.5625 0.296875q0.671875 0.296875 1.09375 0.84375q0.4375 0.546875 0.640625 1.328125q0.21875 0.78125 0.21875 1.71875q0 2.03125 -0.90625 3.109375q-0.90625 1.078125 -2.609375 1.078125q-0.890625 0 -1.5625 -0.296875q-0.65625 -0.296875 -1.09375 -0.84375q-0.421875 -0.546875 -0.640625 -1.328125q-0.203125 -0.78125 -0.203125 -1.71875zm1.328125 0q0 0.609375 0.125 1.171875q0.125 0.5625 0.375 0.984375q0.25 0.40625 0.671875 0.671875q0.421875 0.25 1.0 0.25q2.1875 0.015625 2.1875 -3.078125q0 -0.625 -0.125 -1.1875q-0.125 -0.5625 -0.375 -0.96875q-0.25 -0.421875 -0.671875 -0.671875q-0.421875 -0.25 -1.015625 -0.25q-2.171875 -0.015625 -2.171875 3.078125zm12.841614 4.0l0 -4.5625q0 -1.25 -0.375 -1.875q-0.359375 -0.640625 -1.3125 -0.640625q-0.84375 0 -1.40625 0.46875q-0.546875 0.453125 -0.765625 1.140625l0 5.46875l-1.28125 0l0 -8.0l0.890625 0l0.25 0.96875l0.0625 0q0.375 -0.5 1.015625 -0.828125q0.65625 -0.328125 1.5625 -0.328125q0.640625 0 1.140625 0.15625q0.5 0.140625 0.828125 0.53125q0.328125 0.375 0.484375 1.03125q0.171875 0.640625 0.171875 1.640625l0 4.828125l-1.265625 0zm2.5488892 -8.0l1.25 0l0 -1.578125l1.28125 -0.375l0 1.953125l2.171875 0l0 1.125l-2.171875 0l0 4.421875q0 0.84375 0.203125 1.1875q0.21875 0.34375 0.703125 0.34375q0.421875 0 0.703125 -0.09375q0.296875 -0.09375 0.640625 -0.234375l0.296875 0.984375q-0.4375 0.203125 -0.953125 0.328125q-0.5 0.125 -1.09375 0.125q-0.984375 0 -1.390625 -0.546875q-0.390625 -0.546875 -0.390625 -1.84375l0 -4.671875l-1.25 0l0 -1.125zm12.154297 7.359375q-0.484375 0.390625 -1.21875 0.609375q-0.71875 0.21875 -1.546875 0.21875q-0.90625 0 -1.578125 -0.296875q-0.671875 -0.296875 -1.109375 -0.84375q-0.421875 -0.546875 -0.640625 -1.3125q-0.203125 -0.78125 -0.203125 -1.734375q0 -2.046875 0.90625 -3.109375q0.921875 -1.078125 2.609375 -1.078125q0.546875 0 1.09375 0.125q0.546875 0.109375 0.96875 0.453125q0.4375 0.328125 0.703125 0.953125q0.28125 0.609375 0.28125 1.609375q0 0.53125 -0.09375 1.171875l-5.140625 0q0 0.703125 0.140625 1.25q0.15625 0.546875 0.453125 0.921875q0.3125 0.375 0.796875 0.578125q0.484375 0.203125 1.1875 0.203125q0.546875 0 1.078125 -0.1875q0.546875 -0.203125 0.828125 -0.453125l0.484375 0.921875zm-2.765625 -6.4375q-0.9375 0 -1.515625 0.5q-0.5625 0.5 -0.671875 1.703125l3.96875 0q0 -1.21875 -0.46875 -1.703125q-0.453125 -0.5 -1.3125 -0.5zm6.775635 2.984375l-2.6875 -3.90625l1.5625 0l1.53125 2.203125l0.4375 0.921875l0.46875 -0.921875l1.546875 -2.203125l1.4375 0l-2.703125 3.84375l2.875 4.15625l-1.53125 0l-1.6875 -2.4375l-0.484375 -0.953125l-0.5 0.953125l-1.71875 2.4375l-1.421875 0l2.875 -4.09375zm5.08374 -3.90625l1.25 0l0 -1.578125l1.28125 -0.375l0 1.953125l2.171875 0l0 1.125l-2.171875 0l0 4.421875q0 0.84375 0.203125 1.1875q0.21875 0.34375 0.703125 0.34375q0.421875 0 0.703125 -0.09375q0.296875 -0.09375 0.640625 -0.234375l0.296875 0.984375q-0.4375 0.203125 -0.953125 0.328125q-0.5 0.125 -1.09375 0.125q-0.984375 0 -1.390625 -0.546875q-0.390625 -0.546875 -0.390625 -1.84375l0 -4.671875l-1.25 0l0 -1.125z" fill-rule="nonzero"/><path fill="#000000" fill-opacity="0.0" d="m616.41205 212.0105l25.921265 0l0 35.55905l-25.921265 0z" fill-rule="evenodd"/><path fill="#3c78d8" d="m631.7402 226.76363q0 0.671875 -0.25 1.375q-0.234375 0.6875 -0.625 1.359375q-0.375 0.65625 -0.84375 1.28125q-0.453125 0.625 -0.890625 1.140625l-0.703125 0.546875l0 0.0625l0.953125 -0.1875l2.5625 0l0 1.46875l-5.609375 0l0 -0.890625q0.3125 -0.328125 0.71875 -0.78125q0.40625 -0.453125 0.8125 -0.953125q0.40625 -0.5 0.78125 -1.03125q0.390625 -0.53125 0.6875 -1.0625q0.3125 -0.546875 0.484375 -1.046875q0.1875 -0.515625 0.1875 -0.96875q0 -0.546875 -0.3125 -0.890625q-0.3125 -0.359375 -0.984375 -0.359375q-0.4375 0 -0.890625 0.1875q-0.4375 0.171875 -0.734375 0.453125l-0.703125 -1.21875q0.53125 -0.4375 1.1875 -0.6875q0.65625 -0.265625 1.546875 -0.265625q0.578125 0 1.046875 0.15625q0.484375 0.15625 0.828125 0.46875q0.359375 0.3125 0.546875 0.78125q0.203125 0.453125 0.203125 1.0625z" fill-rule="nonzero"/><path fill="#000000" fill-opacity="0.0" d="m663.83466 212.0105l25.921265 0l0 35.55905l-25.921265 0z" fill-rule="evenodd"/><path fill="#45818e" d="m676.0534 232.52925q0.8125 0 1.25 -0.4375q0.4375 -0.4375 0.4375 -1.0625q0 -0.765625 -0.453125 -1.125q-0.453125 -0.359375 -1.421875 -0.359375l-0.96875 0l0 -0.921875l1.609375 -2.203125l0.765625 -0.59375l-1.046875 0.125l-2.25 0l0 -1.46875l5.09375 0l0 0.9375l-1.875 2.53125l-0.59375 0.359375l0 0.0625l0.5625 -0.078125q0.46875 0.03125 0.890625 0.21875q0.421875 0.171875 0.734375 0.5q0.3125 0.3125 0.5 0.796875q0.1875 0.484375 0.1875 1.109375q0 0.78125 -0.265625 1.359375q-0.25 0.578125 -0.71875 0.96875q-0.453125 0.375 -1.078125 0.5625q-0.609375 0.1875 -1.3125 0.1875q-0.59375 0 -1.21875 -0.109375q-0.625 -0.109375 -1.0 -0.3125l0.453125 -1.4375q0.359375 0.171875 0.765625 0.28125q0.421875 0.109375 0.953125 0.109375z" fill-rule="nonzero"/><path fill="#000000" fill-opacity="0.0" d="m706.3622 164.81364l58.2677 0l0 35.55905l-58.2677 0z" fill-rule="evenodd"/><path fill="#6aa84f" d="m722.25385 181.5824q-0.40625 -0.15625 -0.75 -0.15625q-0.46875 0 -0.78125 0.25q-0.3125 0.25 -0.40625 0.625l0 4.3125l-1.734375 0l0 -6.65625l1.34375 0l0.203125 0.875l0.046875 0q0.21875 -0.5 0.609375 -0.765625q0.390625 -0.265625 0.90625 -0.265625q0.34375 0 0.796875 0.15625l-0.234375 1.625zm1.5844116 3.5625l1.859375 0l0 -5.265625l0.203125 -0.90625l-0.640625 0.796875l-1.1875 0.8125l-0.734375 -1.0l3.03125 -2.453125l0.96875 0l0 8.015625l1.8125 0l0 1.46875l-5.3125 0l0 -1.46875zm6.213257 3.03125l5.921875 0l0 1.421875l-5.921875 0l0 -1.421875zm6.8239136 -8.21875l1.734375 0l0 6.65625l-1.734375 0l0 -6.65625zm-0.25 -1.890625q0 -0.390625 0.28125 -0.65625q0.296875 -0.265625 0.796875 -0.265625q0.515625 0 0.828125 0.265625q0.3125 0.265625 0.3125 0.65625q0 0.390625 -0.3125 0.65625q-0.3125 0.25 -0.828125 0.25q-0.5 0 -0.796875 -0.25q-0.28125 -0.265625 -0.28125 -0.65625zm7.772766 8.546875l0 -3.78125q0 -0.8125 -0.234375 -1.171875q-0.234375 -0.359375 -0.796875 -0.359375q-0.5 0 -0.84375 0.28125q-0.328125 0.28125 -0.46875 0.71875l0 4.3125l-1.734375 0l0 -6.65625l1.359375 0l0.203125 0.875l0.0625 0q0.296875 -0.421875 0.796875 -0.734375q0.515625 -0.328125 1.3125 -0.328125q0.5 0 0.875 0.140625q0.390625 0.125 0.65625 0.4375q0.265625 0.296875 0.40625 0.828125q0.140625 0.515625 0.140625 1.296875l0 4.140625l-1.734375 0zm5.482544 -3.171875l0.234375 1.03125l0.0625 0l0.1875 -1.0625l1.125 -3.453125l1.875 0l-2.78125 6.71875l-1.0625 0l-2.890625 -6.71875l2.015625 0l1.234375 3.484375z" fill-rule="nonzero"/><path fill="#000000" fill-opacity="0.0" d="m764.6289 164.81233l55.212585 0l0 35.55905l-55.212585 0z" fill-rule="evenodd"/><path fill="#a64d79" d="m778.99304 181.58109q-0.40625 -0.15625 -0.75 -0.15625q-0.46875 0 -0.78125 0.25q-0.3125 0.25 -0.40625 0.625l0 4.3125l-1.734375 0l0 -6.65625l1.34375 0l0.203125 0.875l0.046875 0q0.21875 -0.5 0.609375 -0.765625q0.390625 -0.265625 0.90625 -0.265625q0.34375 0 0.796875 0.15625l-0.234375 1.625zm3.4594116 3.75q0.8125 0 1.25 -0.4375q0.4375 -0.4375 0.4375 -1.0625q0 -0.765625 -0.453125 -1.125q-0.453125 -0.359375 -1.421875 -0.359375l-0.96875 0l0 -0.921875l1.609375 -2.203125l0.765625 -0.59375l-1.046875 0.125l-2.25 0l0 -1.46875l5.09375 0l0 0.9375l-1.875 2.53125l-0.59375 0.359375l0 0.0625l0.5625 -0.078125q0.46875 0.03125 0.890625 0.21875q0.421875 0.171875 0.734375 0.5q0.3125 0.3125 0.5 0.796875q0.1875 0.484375 0.1875 1.109375q0 0.78125 -0.265625 1.359375q-0.25 0.578125 -0.71875 0.96875q-0.453125 0.375 -1.078125 0.5625q-0.609375 0.1875 -1.3125 0.1875q-0.59375 0 -1.21875 -0.109375q-0.625 -0.109375 -1.0 -0.3125l0.453125 -1.4375q0.359375 0.171875 0.765625 0.28125q0.421875 0.109375 0.953125 0.109375zm4.338257 2.84375l5.921875 0l0 1.421875l-5.921875 0l0 -1.421875zm6.8239136 -8.21875l1.734375 0l0 6.65625l-1.734375 0l0 -6.65625zm-0.25 -1.890625q0 -0.390625 0.28125 -0.65625q0.296875 -0.265625 0.796875 -0.265625q0.515625 0 0.828125 0.265625q0.3125 0.265625 0.3125 0.65625q0 0.390625 -0.3125 0.65625q-0.3125 0.25 -0.828125 0.25q-0.5 0 -0.796875 -0.25q-0.28125 -0.265625 -0.28125 -0.65625zm7.772766 8.546875l0 -3.78125q0 -0.8125 -0.234375 -1.171875q-0.234375 -0.359375 -0.796875 -0.359375q-0.5 0 -0.84375 0.28125q-0.328125 0.28125 -0.46875 0.71875l0 4.3125l-1.734375 0l0 -6.65625l1.359375 0l0.203125 0.875l0.0625 0q0.296875 -0.421875 0.796875 -0.734375q0.515625 -0.328125 1.3125 -0.328125q0.5 0 0.875 0.140625q0.390625 0.125 0.65625 0.4375q0.265625 0.296875 0.40625 0.828125q0.140625 0.515625 0.140625 1.296875l0 4.140625l-1.734375 0zm5.482544 -3.171875l0.234375 1.03125l0.0625 0l0.1875 -1.0625l1.125 -3.453125l1.875 0l-2.78125 6.71875l-1.0625 0l-2.890625 -6.71875l2.015625 0l1.234375 3.484375z" fill-rule="nonzero"/><path fill="#000000" fill-opacity="0.0" d="m811.9199 164.81364l43.716553 0l0 35.55905l-43.716553 0z" fill-rule="evenodd"/><path fill="#85200c" d="m832.09814 181.5824q-0.40625 -0.15625 -0.75 -0.15625q-0.46875 0 -0.78125 0.25q-0.3125 0.25 -0.40625 0.625l0 4.3125l-1.734375 0l0 -6.65625l1.34375 0l0.203125 0.875l0.046875 0q0.21875 -0.5 0.609375 -0.765625q0.390625 -0.265625 0.90625 -0.265625q0.34375 0 0.796875 0.15625l-0.234375 1.625zm1.6312866 5.03125l3.046875 -7.1875l0.59375 -0.65625l-0.8125 0.140625l-3.421875 0l0 -1.625l6.015625 0l0 0.5l-3.734375 8.828125l-1.6875 0z" fill-rule="nonzero"/><path fill="#000000" fill-opacity="0.0" d="m845.49603 238.3202c0 3.870346 -1.8672485 7.0078735 -4.1706543 7.0078735l-56.865173 0c-2.3034058 0 -4.1707153 3.1375427 -4.1707153 7.0078735l0 0c0 -3.8703308 -1.8672485 -7.0078735 -4.1706543 -7.0078735l-55.61743 0l0 0c-2.3034058 0 -4.1707153 -3.1375275 -4.1707153 -7.0078735z" fill-rule="evenodd"/><path fill="#000000" fill-opacity="0.0" d="m845.49603 238.3202c0 3.870346 -1.8672485 7.0078735 -4.1706543 7.0078735l-56.865173 0c-2.3034058 0 -4.1707153 3.1375427 -4.1707153 7.0078735l0 0c0 -3.8703308 -1.8672485 -7.0078735 -4.1706543 -7.0078735l-55.61743 0l0 0c-2.3034058 0 -4.1707153 -3.1375275 -4.1707153 -7.0078735" fill-rule="evenodd"/><path stroke="#b7b7b7" stroke-width="1.0" stroke-linejoin="round" stroke-linecap="butt" d="m845.49603 238.3202c0 3.870346 -1.8672485 7.0078735 -4.1706543 7.0078735l-56.865173 0c-2.3034058 0 -4.1707153 3.1375427 -4.1707153 7.0078735l0 0c0 -3.8703308 -1.8672485 -7.0078735 -4.1706543 -7.0078735l-55.61743 0l0 0c-2.3034058 0 -4.1707153 -3.1375275 -4.1707153 -7.0078735" fill-rule="evenodd"/><path fill="#000000" fill-opacity="0.0" d="m560.2257 80.834915l0 0c0 -6.253578 5.069519 -11.323105 11.32312 -11.323105l262.64514 0c3.0030518 0 5.8831177 1.1929703 8.006653 3.3164597c2.1234741 2.123497 3.3164673 5.0035706 3.3164673 8.006645l0 31.715996c0 6.253578 -5.06958 11.323105 -11.32312 11.323105l-262.64514 0c-6.253601 0 -11.32312 -5.0695267 -11.32312 -11.323105z" fill-rule="evenodd"/><path stroke="#999999" stroke-width="2.0" stroke-linejoin="round" stroke-linecap="butt" d="m560.2257 80.834915l0 0c0 -6.253578 5.069519 -11.323105 11.32312 -11.323105l262.64514 0c3.0030518 0 5.8831177 1.1929703 8.006653 3.3164597c2.1234741 2.123497 3.3164673 5.0035706 3.3164673 8.006645l0 31.715996c0 6.253578 -5.06958 11.323105 -11.32312 11.323105l-262.64514 0c-6.253601 0 -11.32312 -5.0695267 -11.32312 -11.323105z" fill-rule="evenodd"/><path fill="#000000" d="m676.7667 91.349785l6.09375 0l0 1.1875l-4.765625 0l0 3.65625l4.375 0l0 1.1875l-4.375 0l0 3.984375l4.84375 0l0 1.1875l-6.171875 0l0 -11.203125zm13.591614 11.203125l0 -4.5625q0 -1.25 -0.375 -1.875q-0.359375 -0.640625 -1.3125 -0.640625q-0.84375 0 -1.40625 0.46875q-0.546875 0.453125 -0.765625 1.140625l0 5.46875l-1.28125 0l0 -8.0l0.890625 0l0.25 0.96875l0.0625 0q0.375 -0.5 1.015625 -0.828125q0.65625 -0.328125 1.5625 -0.328125q0.640625 0 1.140625 0.15625q0.5 0.140625 0.828125 0.53125q0.328125 0.375 0.484375 1.03125q0.171875 0.640625 0.171875 1.640625l0 4.828125l-1.265625 0zm9.064514 -0.53125q-0.484375 0.359375 -1.140625 0.53125q-0.65625 0.1875 -1.375 0.1875q-0.921875 0 -1.5625 -0.296875q-0.640625 -0.296875 -1.046875 -0.84375q-0.40625 -0.546875 -0.59375 -1.328125q-0.1875 -0.78125 -0.1875 -1.71875q0 -2.03125 0.890625 -3.109375q0.90625 -1.078125 2.578125 -1.078125q0.78125 0 1.3125 0.125q0.53125 0.109375 0.96875 0.328125l-0.375 1.109375q-0.359375 -0.203125 -0.8125 -0.328125q-0.453125 -0.125 -0.953125 -0.125q-2.28125 0 -2.28125 3.078125q0 0.609375 0.125 1.171875q0.125 0.546875 0.390625 0.96875q0.28125 0.421875 0.734375 0.6875q0.46875 0.25 1.140625 0.25q0.578125 0 1.03125 -0.171875q0.453125 -0.1875 0.734375 -0.40625l0.421875 0.96875zm0.94177246 -3.46875q0 -2.03125 0.90625 -3.109375q0.90625 -1.078125 2.59375 -1.078125q0.90625 0 1.5625 0.296875q0.671875 0.296875 1.09375 0.84375q0.4375 0.546875 0.640625 1.328125q0.21875 0.78125 0.21875 1.71875q0 2.03125 -0.90625 3.109375q-0.90625 1.078125 -2.609375 1.078125q-0.890625 0 -1.5625 -0.296875q-0.65625 -0.296875 -1.09375 -0.84375q-0.421875 -0.546875 -0.640625 -1.328125q-0.203125 -0.78125 -0.203125 -1.71875zm1.328125 0q0 0.609375 0.125 1.171875q0.125 0.5625 0.375 0.984375q0.25 0.40625 0.671875 0.671875q0.421875 0.25 1.0 0.25q2.1875 0.015625 2.1875 -3.078125q0 -0.625 -0.125 -1.1875q-0.125 -0.5625 -0.375 -0.96875q-0.25 -0.421875 -0.671875 -0.671875q-0.421875 -0.25 -1.015625 -0.25q-2.171875 -0.015625 -2.171875 3.078125zm13.841675 1.25q0 0.8125 0.015625 1.484375q0.015625 0.65625 0.140625 1.296875l-0.859375 0l-0.3125 -1.140625l-0.078125 0q-0.3125 0.5625 -0.921875 0.9375q-0.609375 0.359375 -1.421875 0.359375q-1.59375 0 -2.375 -1.0q-0.78125 -1.015625 -0.78125 -3.15625q0 -2.046875 0.96875 -3.109375q0.96875 -1.0625 2.671875 -1.0625q0.59375 0 0.9375 0.0625q0.34375 0.0625 0.734375 0.203125l0 -3.328125l1.28125 0l0 8.453125zm-3.234375 1.828125q0.8125 0 1.296875 -0.421875q0.484375 -0.4375 0.65625 -1.296875l0 -3.96875q-0.28125 -0.21875 -0.65625 -0.3125q-0.359375 -0.109375 -0.96875 -0.109375q-1.109375 0 -1.734375 0.734375q-0.625 0.734375 -0.625 2.328125q0 0.65625 0.09375 1.21875q0.109375 0.5625 0.34375 0.96875q0.25 0.390625 0.640625 0.625q0.390625 0.234375 0.953125 0.234375zm11.545471 0.28125q-0.484375 0.390625 -1.21875 0.609375q-0.71875 0.21875 -1.546875 0.21875q-0.90625 0 -1.578125 -0.296875q-0.671875 -0.296875 -1.109375 -0.84375q-0.421875 -0.546875 -0.640625 -1.3125q-0.203125 -0.78125 -0.203125 -1.734375q0 -2.046875 0.90625 -3.109375q0.921875 -1.078125 2.609375 -1.078125q0.546875 0 1.09375 0.125q0.546875 0.109375 0.96875 0.453125q0.4375 0.328125 0.703125 0.953125q0.28125 0.609375 0.28125 1.609375q0 0.53125 -0.09375 1.171875l-5.140625 0q0 0.703125 0.140625 1.25q0.15625 0.546875 0.453125 0.921875q0.3125 0.375 0.796875 0.578125q0.484375 0.203125 1.1875 0.203125q0.546875 0 1.078125 -0.1875q0.546875 -0.203125 0.828125 -0.453125l0.484375 0.921875zm-2.765625 -6.4375q-0.9375 0 -1.515625 0.5q-0.5625 0.5 -0.671875 1.703125l3.96875 0q0 -1.21875 -0.46875 -1.703125q-0.453125 -0.5 -1.3125 -0.5zm8.831177 0.3125q-0.484375 -0.15625 -0.921875 -0.15625q-0.6875 0 -1.09375 0.375q-0.390625 0.375 -0.484375 0.953125l0 5.59375l-1.28125 0l0 -8.0l0.890625 0l0.25 0.96875l0.0625 0q0.296875 -0.53125 0.71875 -0.828125q0.421875 -0.296875 1.078125 -0.296875q0.46875 0 1.046875 0.15625l-0.265625 1.234375z" fill-rule="nonzero"/><path fill="#000000" fill-opacity="0.0" d="m735.49603 164.81364l0.34643555 -39.90551" fill-rule="evenodd"/><path stroke="#6aa84f" stroke-width="2.0" stroke-linejoin="round" stroke-linecap="butt" d="m735.49603 164.81364l0.24230957 -27.90596" fill-rule="evenodd"/><path fill="#6aa84f" stroke="#6aa84f" stroke-width="2.0" stroke-linecap="butt" d="m739.0417 136.93636l-3.2245483 -9.104523l-3.382141 9.047165z" fill-rule="evenodd"/><path fill="#000000" fill-opacity="0.0" d="m792.2352 164.81233l0.22045898 -40.25197" fill-rule="evenodd"/><path stroke="#a64d79" stroke-width="2.0" stroke-linejoin="round" stroke-linecap="butt" d="m792.2352 164.81233l0.15478516 -28.252151" fill-rule="evenodd"/><path fill="#a64d79" stroke="#a64d79" stroke-width="2.0" stroke-linecap="butt" d="m795.6934 136.57828l-3.2537231 -9.094147l-3.3531494 9.057968z" fill-rule="evenodd"/><path fill="#000000" fill-opacity="0.0" d="m833.7782 164.81364l-0.09448242 -40.25197" fill-rule="evenodd"/><path stroke="#85200c" stroke-width="2.0" stroke-linejoin="round" stroke-linecap="butt" d="m833.7782 164.81364l-0.066345215 -28.251999" fill-rule="evenodd"/><path fill="#85200c" stroke="#85200c" stroke-width="2.0" stroke-linecap="butt" d="m837.0154 136.5539l-3.324768 -9.06842l-3.2821655 9.083923z" fill-rule="evenodd"/><path fill="#000000" fill-opacity="0.0" d="m698.15485 238.3202c0 3.870346 -1.8672485 7.0078735 -4.1706543 7.0078735l-56.865234 0c-2.3034058 0 -4.1706543 3.1375427 -4.1706543 7.0078735l0 0c0 -3.8703308 -1.8672485 -7.0078735 -4.1706543 -7.0078735l-55.617493 0l0 0c-2.3034058 0 -4.1706543 -3.1375275 -4.1706543 -7.0078735z" fill-rule="evenodd"/><path fill="#000000" fill-opacity="0.0" d="m698.15485 238.3202c0 3.870346 -1.8672485 7.0078735 -4.1706543 7.0078735l-56.865234 0c-2.3034058 0 -4.1706543 3.1375427 -4.1706543 7.0078735l0 0c0 -3.8703308 -1.8672485 -7.0078735 -4.1706543 -7.0078735l-55.617493 0l0 0c-2.3034058 0 -4.1706543 -3.1375275 -4.1706543 -7.0078735" fill-rule="evenodd"/><path stroke="#b7b7b7" stroke-width="1.0" stroke-linejoin="round" stroke-linecap="butt" d="m698.15485 238.3202c0 3.870346 -1.8672485 7.0078735 -4.1706543 7.0078735l-56.865234 0c-2.3034058 0 -4.1706543 3.1375427 -4.1706543 7.0078735l0 0c0 -3.8703308 -1.8672485 -7.0078735 -4.1706543 -7.0078735l-55.617493 0l0 0c-2.3034058 0 -4.1706543 -3.1375275 -4.1706543 -7.0078735" fill-rule="evenodd"/><path fill="#000000" fill-opacity="0.0" d="m702.8714 69.51181l0 -30.519684" fill-rule="evenodd"/><path stroke="#000000" stroke-width="1.0" stroke-linejoin="round" stroke-linecap="butt" d="m702.8714 69.51181l0 -24.519684" fill-rule="evenodd"/><path fill="#000000" stroke="#000000" stroke-width="1.0" stroke-linecap="butt" d="m704.52313 44.992126l-1.6517334 -4.5380974l-1.6517334 4.5380974z" fill-rule="evenodd"/><path fill="#000000" fill-opacity="0.0" d="m209.71654 252.33595l103.71654 0l0 38.771652l-103.71654 0z" fill-rule="evenodd"/><path fill="#cc0000" d="m227.62279 267.44595l-3.265625 0l0 9.25l-2.1875 0l0 -9.25l-3.28125 0l0 -1.953125l8.734375 0l0 1.953125zm-0.638855 1.71875q0.640625 -0.296875 1.515625 -0.453125q0.890625 -0.171875 1.84375 -0.171875q0.84375 0 1.390625 0.203125q0.5625 0.1875 0.890625 0.5625q0.328125 0.359375 0.46875 0.875q0.140625 0.515625 0.140625 1.15625q0 0.703125 -0.046875 1.421875q-0.046875 0.703125 -0.0625 1.390625q-0.015625 0.6875 0.03125 1.34375q0.0625 0.640625 0.25 1.21875l-1.703125 0l-0.328125 -1.109375l-0.078125 0q-0.328125 0.5 -0.890625 0.859375q-0.5625 0.359375 -1.46875 0.359375q-0.5625 0 -1.015625 -0.15625q-0.4375 -0.171875 -0.765625 -0.484375q-0.3125 -0.3125 -0.484375 -0.734375q-0.171875 -0.4375 -0.171875 -0.953125q0 -0.734375 0.328125 -1.234375q0.328125 -0.515625 0.9375 -0.828125q0.609375 -0.3125 1.46875 -0.421875q0.859375 -0.125 1.921875 -0.078125q0.109375 -0.890625 -0.140625 -1.28125q-0.234375 -0.40625 -1.0625 -0.40625q-0.625 0 -1.328125 0.140625q-0.6875 0.125 -1.140625 0.328125l-0.5 -1.546875zm2.640625 5.953125q0.625 0 0.984375 -0.28125q0.375 -0.28125 0.5625 -0.609375l0 -1.03125q-0.5 -0.046875 -0.96875 -0.015625q-0.453125 0.03125 -0.8125 0.140625q-0.34375 0.109375 -0.546875 0.328125q-0.203125 0.203125 -0.203125 0.515625q0 0.453125 0.265625 0.703125q0.265625 0.25 0.71875 0.25zm9.764145 -4.46875q-0.5 -0.171875 -0.890625 -0.171875q-0.5625 0 -0.9375 0.296875q-0.375 0.296875 -0.515625 0.75l0 5.171875l-2.078125 0l0 -8.0l1.625 0l0.234375 1.0625l0.0625 0q0.28125 -0.59375 0.734375 -0.90625q0.46875 -0.328125 1.09375 -0.328125q0.421875 0 0.9375 0.171875l-0.265625 1.953125zm7.9753876 6.046875q0 1.75 -0.953125 2.5625q-0.9375 0.828125 -2.640625 0.828125q-1.15625 0 -1.828125 -0.15625q-0.65625 -0.15625 -0.984375 -0.34375l0.4375 -1.640625q0.359375 0.140625 0.84375 0.28125q0.5 0.15625 1.21875 0.15625q1.078125 0 1.46875 -0.484375q0.390625 -0.46875 0.390625 -1.3125l0 -0.515625l-0.0625 0q-0.546875 0.75 -1.984375 0.75q-1.546875 0 -2.3125 -0.953125q-0.75 -0.96875 -0.75 -3.015625q0 -2.140625 1.015625 -3.234375q1.03125 -1.109375 2.984375 -1.109375q1.015625 0 1.828125 0.140625q0.8125 0.140625 1.328125 0.328125l0 7.71875zm-3.53125 -1.53125q0.609375 0 0.9375 -0.265625q0.328125 -0.28125 0.5 -0.828125l0 -3.59375q-0.484375 -0.21875 -1.21875 -0.21875q-0.8125 0 -1.265625 0.609375q-0.4375 0.59375 -0.4375 1.90625q0 1.171875 0.375 1.78125q0.390625 0.609375 1.109375 0.609375zm11.732269 0.84375q-0.484375 0.390625 -1.3125 0.65625q-0.8125 0.25 -1.75 0.25q-1.9375 0 -2.828125 -1.125q-0.890625 -1.125 -0.890625 -3.09375q0 -2.109375 1.0 -3.15625q1.015625 -1.0625 2.84375 -1.0625q0.59375 0 1.171875 0.15625q0.578125 0.15625 1.03125 0.53125q0.453125 0.359375 0.71875 0.984375q0.265625 0.625 0.265625 1.5625q0 0.328125 -0.046875 0.71875q-0.03125 0.375 -0.109375 0.796875l-4.796875 0q0.046875 1.0 0.515625 1.515625q0.46875 0.515625 1.53125 0.515625q0.65625 0 1.171875 -0.203125q0.53125 -0.203125 0.796875 -0.40625l0.6875 1.359375zm-2.96875 -5.875q-0.828125 0 -1.21875 0.5q-0.390625 0.484375 -0.46875 1.296875l2.96875 0q0.078125 -0.859375 -0.25 -1.328125q-0.328125 -0.46875 -1.03125 -0.46875zm3.862381 -1.4375l1.109375 0l0 -1.5l2.078125 -0.59375l0 2.09375l1.953125 0l0 1.765625l-1.953125 0l0 3.0625q0 0.828125 0.15625 1.203125q0.171875 0.359375 0.640625 0.359375q0.328125 0 0.546875 -0.0625q0.234375 -0.078125 0.53125 -0.203125l0.359375 1.609375q-0.421875 0.203125 -1.0 0.34375q-0.578125 0.140625 -1.171875 0.140625q-1.109375 0 -1.625 -0.5625q-0.515625 -0.5625 -0.515625 -1.859375l0 -4.03125l-1.109375 0l0 -1.765625zm15.366394 8.0l0 -4.546875q0 -0.96875 -0.28125 -1.40625q-0.28125 -0.4375 -0.953125 -0.4375q-0.59375 0 -1.0 0.34375q-0.40625 0.34375 -0.59375 0.859375l0 5.1875l-2.078125 0l0 -8.0l1.65625 0l0.234375 1.0625l0.0625 0q0.375 -0.515625 0.984375 -0.890625q0.609375 -0.390625 1.5625 -0.390625q0.59375 0 1.046875 0.15625q0.46875 0.15625 0.78125 0.53125q0.328125 0.359375 0.484375 1.0q0.171875 0.625 0.171875 1.5625l0 4.96875l-2.078125 0zm3.4387817 -4.0q0 -2.03125 0.984375 -3.125q1.0 -1.09375 2.78125 -1.09375q0.96875 0 1.671875 0.3125q0.703125 0.296875 1.15625 0.84375q0.46875 0.546875 0.703125 1.34375q0.234375 0.78125 0.234375 1.71875q0 2.03125 -0.984375 3.125q-0.984375 1.09375 -2.78125 1.09375q-0.953125 0 -1.65625 -0.296875q-0.703125 -0.3125 -1.1875 -0.859375q-0.46875 -0.546875 -0.703125 -1.328125q-0.21875 -0.796875 -0.21875 -1.734375zm2.140625 0q0 0.53125 0.09375 0.984375q0.09375 0.4375 0.28125 0.78125q0.203125 0.328125 0.515625 0.515625q0.3125 0.1875 0.734375 0.1875q0.828125 0 1.21875 -0.59375q0.40625 -0.59375 0.40625 -1.875q0 -1.109375 -0.375 -1.78125q-0.359375 -0.6875 -1.25 -0.6875q-0.765625 0 -1.203125 0.578125q-0.421875 0.578125 -0.421875 1.890625zm13.6388855 1.1875q0 0.671875 0.015625 1.34375q0.015625 0.671875 0.140625 1.484375l-1.484375 0l-0.296875 -1.046875l-0.0625 0q-0.3125 0.5625 -0.921875 0.90625q-0.59375 0.34375 -1.40625 0.34375q-1.515625 0 -2.34375 -0.984375q-0.828125 -1.0 -0.828125 -3.109375q0 -2.046875 0.921875 -3.171875q0.9375 -1.140625 2.71875 -1.140625q0.5 0 0.8125 0.0625q0.328125 0.046875 0.640625 0.171875l0 -3.25l2.09375 0l0 8.390625zm-3.546875 1.28125q0.609375 0 0.953125 -0.296875q0.359375 -0.296875 0.5 -0.859375l0 -3.390625q-0.21875 -0.171875 -0.5 -0.265625q-0.265625 -0.09375 -0.6875 -0.09375q-0.890625 0 -1.328125 0.59375q-0.4375 0.59375 -0.4375 2.03125q0 1.03125 0.359375 1.65625q0.359375 0.625 1.140625 0.625zm11.764648 0.84375q-0.484375 0.390625 -1.3125 0.65625q-0.8125 0.25 -1.75 0.25q-1.9375 0 -2.828125 -1.125q-0.890625 -1.125 -0.890625 -3.09375q0 -2.109375 1.0 -3.15625q1.015625 -1.0625 2.84375 -1.0625q0.59375 0 1.171875 0.15625q0.578125 0.15625 1.03125 0.53125q0.453125 0.359375 0.71875 0.984375q0.265625 0.625 0.265625 1.5625q0 0.328125 -0.046875 0.71875q-0.03125 0.375 -0.109375 0.796875l-4.796875 0q0.046875 1.0 0.515625 1.515625q0.46875 0.515625 1.53125 0.515625q0.65625 0 1.171875 -0.203125q0.53125 -0.203125 0.796875 -0.40625l0.6875 1.359375zm-2.96875 -5.875q-0.828125 0 -1.21875 0.5q-0.390625 0.484375 -0.46875 1.296875l2.96875 0q0.078125 -0.859375 -0.25 -1.328125q-0.328125 -0.46875 -1.03125 -0.46875z" fill-rule="nonzero"/><path fill="#000000" fill-opacity="0.0" d="m716.3307 5.727034l103.71655 0l0 38.771652l-103.71655 0z" fill-rule="evenodd"/><path fill="#cc0000" d="m734.23694 21.622862l-3.265625 0l0 9.25l-2.1875 0l0 -9.25l-3.28125 0l0 -1.953125l8.734375 0l0 1.953125zm-0.638855 1.71875q0.640625 -0.296875 1.515625 -0.453125q0.890625 -0.171875 1.84375 -0.171875q0.84375 0 1.390625 0.203125q0.5625 0.1875 0.890625 0.5625q0.328125 0.359375 0.46875 0.875q0.140625 0.515625 0.140625 1.15625q0 0.703125 -0.046875 1.421875q-0.046875 0.703125 -0.0625 1.390625q-0.015625 0.6875 0.03125 1.34375q0.0625 0.640625 0.25 1.21875l-1.703125 0l-0.328125 -1.109375l-0.078125 0q-0.328125 0.5 -0.890625 0.859375q-0.5625 0.359375 -1.46875 0.359375q-0.5625 0 -1.015625 -0.15625q-0.4375 -0.171875 -0.765625 -0.484375q-0.3125 -0.3125 -0.484375 -0.734375q-0.171875 -0.4375 -0.171875 -0.953125q0 -0.734375 0.328125 -1.234375q0.328125 -0.515625 0.9375 -0.828125q0.609375 -0.3125 1.46875 -0.421875q0.859375 -0.125 1.921875 -0.078125q0.109375 -0.890625 -0.140625 -1.28125q-0.234375 -0.40625 -1.0625 -0.40625q-0.625 0 -1.328125 0.140625q-0.6875 0.125 -1.140625 0.328125l-0.5 -1.546875zm2.640625 5.953125q0.625 0 0.984375 -0.28125q0.375 -0.28125 0.5625 -0.609375l0 -1.03125q-0.5 -0.046875 -0.96875 -0.015625q-0.453125 0.03125 -0.8125 0.140625q-0.34375 0.109375 -0.546875 0.328125q-0.203125 0.203125 -0.203125 0.515625q0 0.453125 0.265625 0.703125q0.265625 0.25 0.71875 0.25zm9.76416 -4.46875q-0.5 -0.171875 -0.890625 -0.171875q-0.5625 0 -0.9375 0.296875q-0.375 0.296875 -0.515625 0.75l0 5.171875l-2.078125 0l0 -8.0l1.625 0l0.234375 1.0625l0.0625 0q0.28125 -0.59375 0.734375 -0.90625q0.46875 -0.328125 1.09375 -0.328125q0.421875 0 0.9375 0.171875l-0.265625 1.953125zm7.975403 6.046875q0 1.7500019 -0.953125 2.562502q-0.9375 0.828125 -2.640625 0.828125q-1.15625 0 -1.828125 -0.15625q-0.65625 -0.15625 -0.984375 -0.34375l0.4375 -1.640625q0.359375 0.140625 0.84375 0.28125q0.5 0.15625 1.21875 0.15625q1.078125 0 1.46875 -0.484375q0.390625 -0.4687519 0.390625 -1.3125019l0 -0.515625l-0.0625 0q-0.546875 0.75 -1.984375 0.75q-1.546875 0 -2.3125 -0.953125q-0.75 -0.96875 -0.75 -3.015625q0 -2.140625 1.015625 -3.234375q1.03125 -1.109375 2.984375 -1.109375q1.015625 0 1.828125 0.140625q0.8125 0.140625 1.328125 0.328125l0 7.71875zm-3.53125 -1.53125q0.609375 0 0.9375 -0.265625q0.328125 -0.28125 0.5 -0.828125l0 -3.59375q-0.484375 -0.21875 -1.21875 -0.21875q-0.8125 0 -1.265625 0.609375q-0.4375 0.59375 -0.4375 1.90625q0 1.171875 0.375 1.78125q0.390625 0.609375 1.109375 0.609375zm11.732239 0.84375q-0.484375 0.390625 -1.3125 0.65625q-0.8125 0.25 -1.75 0.25q-1.9375 0 -2.828125 -1.125q-0.890625 -1.125 -0.890625 -3.09375q0 -2.109375 1.0 -3.15625q1.015625 -1.0625 2.84375 -1.0625q0.59375 0 1.171875 0.15625q0.578125 0.15625 1.03125 0.53125q0.453125 0.359375 0.71875 0.984375q0.265625 0.625 0.265625 1.5625q0 0.328125 -0.046875 0.71875q-0.03125 0.375 -0.109375 0.796875l-4.796875 0q0.046875 1.0 0.515625 1.515625q0.46875 0.515625 1.53125 0.515625q0.65625 0 1.171875 -0.203125q0.53125 -0.203125 0.796875 -0.40625l0.6875 1.359375zm-2.96875 -5.875q-0.828125 0 -1.21875 0.5q-0.390625 0.484375 -0.46875 1.296875l2.96875 0q0.078125 -0.859375 -0.25 -1.328125q-0.328125 -0.46875 -1.03125 -0.46875zm3.8624268 -1.4375l1.109375 0l0 -1.5l2.078125 -0.59375l0 2.09375l1.953125 0l0 1.765625l-1.953125 0l0 3.0625q0 0.828125 0.15625 1.203125q0.171875 0.359375 0.640625 0.359375q0.328125 0 0.546875 -0.0625q0.234375 -0.078125 0.53125 -0.203125l0.359375 1.609375q-0.421875 0.203125 -1.0 0.34375q-0.578125 0.140625 -1.171875 0.140625q-1.109375 0 -1.625 -0.5625q-0.515625 -0.5625 -0.515625 -1.859375l0 -4.03125l-1.109375 0l0 -1.765625zm15.366394 8.0l0 -4.546875q0 -0.96875 -0.28125 -1.40625q-0.28125 -0.4375 -0.953125 -0.4375q-0.59375 0 -1.0 0.34375q-0.40625 0.34375 -0.59375 0.859375l0 5.1875l-2.078125 0l0 -8.0l1.65625 0l0.234375 1.0625l0.0625 0q0.375 -0.515625 0.984375 -0.890625q0.609375 -0.390625 1.5625 -0.390625q0.59375 0 1.046875 0.15625q0.46875 0.15625 0.78125 0.53125q0.328125 0.359375 0.484375 1.0q0.171875 0.625 0.171875 1.5625l0 4.96875l-2.078125 0zm3.4387817 -4.0q0 -2.03125 0.984375 -3.125q1.0 -1.09375 2.78125 -1.09375q0.96875 0 1.671875 0.3125q0.703125 0.296875 1.15625 0.84375q0.46875 0.546875 0.703125 1.34375q0.234375 0.78125 0.234375 1.71875q0 2.03125 -0.984375 3.125q-0.984375 1.09375 -2.78125 1.09375q-0.953125 0 -1.65625 -0.296875q-0.703125 -0.3125 -1.1875 -0.859375q-0.46875 -0.546875 -0.703125 -1.328125q-0.21875 -0.796875 -0.21875 -1.734375zm2.140625 0q0 0.53125 0.09375 0.984375q0.09375 0.4375 0.28125 0.78125q0.203125 0.328125 0.515625 0.515625q0.3125 0.1875 0.734375 0.1875q0.828125 0 1.21875 -0.59375q0.40625 -0.59375 0.40625 -1.875q0 -1.109375 -0.375 -1.78125q-0.359375 -0.6875 -1.25 -0.6875q-0.765625 0 -1.203125 0.578125q-0.421875 0.578125 -0.421875 1.890625zm13.638855 1.1875q0 0.671875 0.015625 1.34375q0.015625 0.671875 0.140625 1.484375l-1.484375 0l-0.296875 -1.046875l-0.0625 0q-0.3125 0.5625 -0.921875 0.90625q-0.59375 0.34375 -1.40625 0.34375q-1.515625 0 -2.34375 -0.984375q-0.828125 -1.0 -0.828125 -3.109375q0 -2.046875 0.921875 -3.171875q0.9375 -1.140625 2.71875 -1.140625q0.5 0 0.8125 0.0625q0.328125 0.046875 0.640625 0.171875l0 -3.25l2.09375 0l0 8.390625zm-3.546875 1.28125q0.609375 0 0.953125 -0.296875q0.359375 -0.296875 0.5 -0.859375l0 -3.390625q-0.21875 -0.171875 -0.5 -0.265625q-0.265625 -0.09375 -0.6875 -0.09375q-0.890625 0 -1.328125 0.59375q-0.4375 0.59375 -0.4375 2.03125q0 1.03125 0.359375 1.65625q0.359375 0.625 1.140625 0.625zm11.764648 0.84375q-0.484375 0.390625 -1.3125 0.65625q-0.8125 0.25 -1.75 0.25q-1.9375 0 -2.828125 -1.125q-0.890625 -1.125 -0.890625 -3.09375q0 -2.109375 1.0 -3.15625q1.015625 -1.0625 2.84375 -1.0625q0.59375 0 1.171875 0.15625q0.578125 0.15625 1.03125 0.53125q0.453125 0.359375 0.71875 0.984375q0.265625 0.625 0.265625 1.5625q0 0.328125 -0.046875 0.71875q-0.03125 0.375 -0.109375 0.796875l-4.796875 0q0.046875 1.0 0.515625 1.515625q0.46875 0.515625 1.53125 0.515625q0.65625 0 1.171875 -0.203125q0.53125 -0.203125 0.796875 -0.40625l0.6875 1.359375zm-2.96875 -5.875q-0.828125 0 -1.21875 0.5q-0.390625 0.484375 -0.46875 1.296875l2.96875 0q0.078125 -0.859375 -0.25 -1.328125q-0.328125 -0.46875 -1.03125 -0.46875z" fill-rule="nonzero"/></g></svg>